<svg xmlns="http://www.w3.org/2000/svg" xmlns:xlink="http://www.w3.org/1999/xlink" width="1024" zoomAndPan="magnify" viewBox="0 0 768 767.999994" height="1024" preserveAspectRatio="xMidYMid meet" version="1.0"><path fill="#ffffff" d="M 169.507812 154.15625 C 100.574219 209.808594 58.675781 301.976562 64.246094 385.789062 C 66.886719 425.671875 74.691406 453.96875 93.964844 493.601562 C 108.207031 522.886719 115.117188 532.105469 145.863281 562.742188 C 321.851562 738.148438 624.261719 649.40625 682.261719 429.722656 C 690.734375 397.621094 690.953125 329.722656 682.667969 298.597656 C 673.949219 265.820312 648.132812 215.3125 627.039062 189.773438 C 589.433594 144.25 525.875 104.535156 465.410156 88.871094 C 431.96875 80.183594 363.742188 76.890625 328.941406 82.296875 C 329.308594 82.296875 245.933594 92.484375 169.507812 154.15625 Z M 446.832031 196.125 C 439.957031 202.539062 381.976562 210.714844 331.667969 212.371094 C 265.460938 214.550781 267.390625 216.65625 291.558594 168.488281 C 311.726562 128.269531 319.546875 120.941406 345.859375 117.585938 C 388.117188 112.1875 392.847656 112.882812 404.792969 126.246094 C 407.585938 126.246094 450.941406 192.285156 446.832031 196.125 Z M 523.679688 151.785156 C 532.121094 157.246094 532.164062 157.457031 525.535156 162.46875 C 516.753906 169.101562 484.539062 185.894531 483.472656 184.394531 C 480.339844 180.003906 449.5 126.925781 449.5 125.929688 C 449.535156 117.859375 513.820312 145.371094 523.679688 151.785156 Z M 235.714844 204.960938 C 233.015625 207.628906 187.59375 195.519531 185.109375 191.464844 C 182.707031 187.554688 216.121094 163.367188 242.128906 150.195312 C 253.953125 144.210938 263.785156 139.800781 264.257812 140.246094 C 265.46875 141.472656 238.203125 202.5 235.714844 204.960938 Z M 583.183594 196.546875 C 612.722656 227.730469 628.613281 253.320312 641.296875 290.15625 C 644.910156 300.636719 646.617188 309.804688 645.117188 310.691406 C 641.398438 312.910156 571.816406 325.609375 548.179688 328.347656 C 515.269531 332.191406 535.578125 334.570312 507.472656 247.574219 C 502.558594 232.363281 499.054688 219.324219 499.710938 218.679688 C 500.363281 218.03125 510.347656 212.769531 522.171875 206.851562 C 557.640625 189.105469 557.839844 181.832031 565.074219 181.503906 C 568.320312 181.34375 583.539062 196.546875 583.183594 196.546875 Z M 185.042969 229.148438 C 199.566406 234.121094 214.871094 238.101562 219.164062 238.101562 C 226.015625 238.101562 226.621094 239.453125 224.648438 249.597656 C 219.003906 277.949219 212.054688 315.648438 212.054688 344.558594 C 195.640625 344.558594 131.910156 345.117188 115.613281 342.363281 C 103.128906 340.25 102.6875 339.667969 104.34375 327.328125 C 106.492188 311.644531 121.015625 272.917969 131.230469 255.675781 C 140.238281 240.472656 154.953125 220.195312 156.972656 220.195312 C 158.339844 220.195312 185.40625 229.148438 185.042969 229.148438 Z M 488.722656 324.957031 C 488.722656 331.585938 486.355469 333.425781 475.550781 335.078125 C 454.265625 338.316406 251.136719 345.902344 248.808594 343.546875 C 246.480469 341.195312 252.949219 287.785156 258.667969 263.144531 L 262.402344 246.921875 C 312.503906 248.246094 384.644531 251.894531 440.753906 236.609375 C 464.398438 230.183594 463.601562 230.050781 467.820312 240.84375 C 469.425781 240.8125 488.722656 314.328125 488.722656 324.957031 Z M 641.117188 437.160156 C 620.957031 497.445312 569.8125 546.675781 570.128906 546.351562 C 562.96875 542.152344 530.449219 523.144531 524.699219 519.488281 C 521.046875 517.183594 520.945312 513.0625 524.183594 498.871094 C 529.265625 476.640625 532.023438 390.699219 532.96875 367.902344 C 548.890625 365.632812 614.902344 356.636719 630.59375 352.21875 C 648.15625 347.246094 650.832031 347.410156 653.113281 353.371094 C 656.972656 353.347656 650.261719 409.78125 641.117188 437.160156 Z M 495.816406 402.34375 C 495.816406 429.699219 490.390625 484.8125 486.4375 497.671875 C 480.703125 516.261719 439.558594 464.371094 262.734375 494.289062 C 257.695312 471.1875 250.960938 443.722656 248.382812 409.289062 L 246.1875 380.0625 C 421.835938 378.820312 344.296875 376.449219 495.816406 372.96875 Z M 208.691406 384.441406 C 209.808594 386.304688 211.78125 403.199219 213.082031 422.121094 C 217.222656 482.632812 233.304688 507.792969 221.523438 507.792969 C 215.683594 507.792969 162.058594 530.238281 162.417969 530.097656 C 125.878906 487.375 105.835938 435.933594 102.761719 398.300781 L 100.941406 376 C 220.105469 381.703125 209.070312 384.441406 208.691406 384.441406 Z M 474.53125 544.289062 C 474.53125 553.753906 445.398438 607.164062 438.078125 611.175781 C 427.636719 616.871094 357.128906 617.730469 337.75 618.304688 L 321.351562 597.6875 C 298.503906 568.957031 277.492188 532.972656 281.34375 529.167969 C 290.722656 519.878906 375.589844 517.960938 419.5 526.042969 C 424.246094 526.042969 474.53125 537.832031 474.53125 544.289062 Z M 250.464844 556.457031 C 269.238281 595.042969 285.675781 606.070312 271.175781 601.625 C 258.335938 597.6875 211.035156 572.222656 199.925781 563.261719 L 189.792969 555.105469 C 236.121094 536.746094 239.195312 533.265625 250.480469 556.457031 Z M 496.488281 591.597656 C 494.988281 590.105469 511.632812 551.433594 510.679688 553.753906 C 527.597656 564.671875 531.765625 568.128906 532.148438 570.335938 C 536.695312 570.308594 498.90625 594 496.488281 591.597656 Z M 496.488281 591.597656 " fill-opacity="1" fill-rule="nonzero"/></svg>