<svg xmlns="http://www.w3.org/2000/svg" xmlns:xlink="http://www.w3.org/1999/xlink" width="1024" zoomAndPan="magnify" viewBox="0 0 768 767.999994" height="1024" preserveAspectRatio="xMidYMid meet" version="1.0"><path fill="#ffffff" d="M 314.398438 87.914062 C 294.746094 93.644531 264.132812 121.910156 258.144531 139.847656 C 257.476562 141.859375 250.496094 138.691406 240.125 131.65625 C 217.945312 116.644531 204.90625 112.667969 182.53125 114.101562 C 153.0625 115.992188 138.128906 130.566406 136.019531 159.523438 C 132.109375 213.542969 211.265625 288.550781 279.75 288.550781 C 301.757812 288.550781 308.675781 283.082031 331.632812 247.554688 C 370.65625 187.160156 382.113281 161.085938 382.039062 132.777344 C 381.9375 96.171875 352.644531 76.765625 314.398438 87.914062 Z M 349.078125 119.078125 C 360.460938 131.558594 348.964844 164.167969 313.027344 221.558594 C 301.902344 239.324219 290.875 255.425781 288.460938 257.414062 C 282.382812 262.429688 257.066406 256.746094 233.039062 244.992188 C 200.296875 228.960938 164.386719 186.058594 164.289062 162.800781 C 164.289062 159.269531 167.527344 152.96875 171.351562 149.140625 C 184.078125 136.402344 204.9375 141.359375 233.632812 163.847656 C 258.140625 183.070312 271.640625 180.296875 282.523438 153.792969 C 295.097656 123.183594 334.269531 102.769531 349.109375 119.082031 Z M 349.078125 119.078125 " fill-opacity="1" fill-rule="nonzero"/><path fill="#ffffff" d="M 589.238281 298.492188 C 583.945312 302.433594 582.816406 306.003906 582.816406 318.847656 C 582.816406 337.84375 585.003906 337.542969 524.390625 326.796875 C 407.191406 306.019531 359.710938 330.820312 267.1875 337.363281 C 220.5 340.660156 211.085938 345.828125 205.835938 371.046875 C 197.257812 412.28125 254.628906 438.144531 345.546875 434.054688 C 376.949219 432.632812 387.65625 434.726562 373.125 439.371094 C 365.351562 441.871094 242.574219 442.722656 225.960938 442.941406 C 134.390625 405.648438 80.488281 381.503906 62.59375 419.148438 C 49.742188 446.160156 74.707031 480.847656 126.039062 507.300781 C 158.28125 523.910156 213.683594 543.957031 262.285156 556.601562 C 386.847656 589.007812 436.40625 577.96875 580.101562 546.765625 C 596.84375 564.296875 605.234375 578.136719 660.648438 578.828125 C 690.683594 579.195312 700.40625 576.148438 709.996094 563.164062 C 715.816406 555.3125 716.109375 551.144531 716.949219 463.6875 C 717.9375 360.664062 715.5 323.59375 706.988281 312.019531 C 696.824219 298.203125 688.238281 295.992188 640.167969 294.804688 C 602.492188 293.871094 594.679688 294.441406 589.269531 298.492188 Z M 686.082031 543.765625 C 683.476562 548.644531 680.28125 549.5 664.726562 549.5 C 641.511719 549.5 618.683594 544.730469 613.769531 538.84375 C 610.933594 535.453125 610.050781 510.964844 609.84375 430.074219 L 609.570312 325.679688 C 679.613281 325.679688 680.175781 324.648438 682.988281 332.242188 C 686.464844 332.242188 690.039062 536.378906 686.082031 543.765625 Z M 518.382812 354.292969 C 557.976562 360.675781 570.457031 362.03125 583.636719 363.679688 C 582.96875 389.886719 580.898438 512.769531 576.8125 515.300781 C 563.621094 523.480469 427.183594 546.808594 392.511719 546.808594 C 303.773438 546.808594 140.324219 494.984375 102.890625 454.976562 C 54.324219 403.078125 148.636719 444.148438 220.226562 472.738281 C 337.167969 471.109375 376.453125 471.195312 386.367188 466.308594 C 405.949219 456.671875 412.214844 417.53125 455.34375 417.53125 C 473.089844 417.53125 486.761719 421.839844 497.664062 430.878906 C 511.191406 442.085938 522.78125 438.574219 522.78125 423.269531 C 522.78125 401.753906 468.992188 382.800781 433.773438 391.917969 C 393.128906 402.4375 294.074219 413.578125 248.105469 391.570312 C 237.457031 386.46875 235.695312 384.390625 236.507812 377.902344 C 238.234375 364.066406 251.910156 373.644531 359.234375 356.179688 C 383.808594 352.15625 407.65625 348.355469 412.476562 347.636719 C 438.394531 343.757812 524.597656 354.292969 518.382812 354.292969 Z M 518.382812 354.292969 " fill-opacity="1" fill-rule="nonzero"/></svg>