<svg xmlns="http://www.w3.org/2000/svg" xmlns:xlink="http://www.w3.org/1999/xlink" width="1024" zoomAndPan="magnify" viewBox="0 0 768 767.999994" height="1024" preserveAspectRatio="xMidYMid meet" version="1.0"><defs><clipPath id="833491abd8"><path d="M 558 232 L 655.90625 232 L 655.90625 283 L 558 283 Z M 558 232 " clip-rule="nonzero"/></clipPath></defs><path fill="#ffffff" d="M 430.847656 85.8125 C 425.640625 95.527344 442.386719 171.15625 452.289062 182.644531 C 458.589844 189.960938 460.589844 190.53125 468.042969 187.144531 C 473.628906 184.609375 476.589844 180.6875 476.613281 175.816406 C 476.671875 163.398438 460.027344 94.363281 455.066406 86.429688 C 449.21875 77.121094 435.6875 76.777344 430.847656 85.8125 Z M 430.847656 85.8125 " fill-opacity="1" fill-rule="nonzero"/><path fill="#ffffff" d="M 558.1875 115.609375 C 550.363281 123.980469 519.089844 184.074219 519.089844 190.714844 C 519.089844 198.160156 530.917969 206.859375 538.019531 204.628906 C 545.578125 202.246094 584.246094 134.539062 584.246094 123.675781 C 584.246094 108.15625 569.421875 103.566406 558.1875 115.609375 Z M 558.1875 115.609375 " fill-opacity="1" fill-rule="nonzero"/><path fill="#ffffff" d="M 245.246094 162.007812 L 237.632812 170.226562 C 241.125 360.28125 241.386719 398.601562 246.324219 463.523438 C 214.738281 447.078125 211.878906 443.964844 186.121094 443.964844 C 169.984375 443.964844 159.902344 445.792969 151.058594 450.3125 C 126.703125 462.761719 112.242188 489.898438 116.753906 514.417969 C 121.449219 539.648438 153.226562 568.824219 181.785156 574.109375 C 217.472656 580.714844 248.050781 565.140625 264.867188 531.796875 L 274.882812 511.9375 C 273.117188 287.527344 274.171875 274.511719 275.1875 274.511719 C 277.796875 274.511719 350.589844 296.183594 362.714844 300.5625 C 495.679688 348.71875 499.53125 345.308594 503.570312 349.199219 C 505.800781 351.320312 515.34375 477.300781 515.671875 541.109375 L 505.125 535.726562 C 490.464844 528.234375 452.683594 528.699219 437.476562 536.554688 C 390.621094 560.75 378.21875 599.625 407.4375 630.804688 C 419.234375 643.414062 450.820312 658.164062 471.640625 660.777344 C 509.171875 665.488281 522.78125 649.800781 547.660156 624.90625 C 550.089844 589.203125 553.125 569.984375 547.046875 466.78125 C 533.574219 238.117188 556.117188 244.839844 486.226562 227.261719 C 395.050781 204.339844 282.757812 153.777344 263.707031 153.777344 C 252.09375 153.777344 244.910156 162.007812 245.246094 162.007812 Z M 327.9375 210.933594 C 465.859375 264.304688 489.496094 260.046875 501.554688 267.386719 C 503.53125 268.597656 505.679688 279.027344 506.363281 290.816406 C 507.597656 311.925781 507.542969 312.070312 499.382812 310.992188 C 487.421875 309.414062 351.867188 262.324219 304.824219 249.855469 L 271.464844 241.007812 C 271.464844 239.652344 271.167969 189.800781 272.394531 189.800781 C 273.0625 189.785156 328.28125 210.933594 327.9375 210.933594 Z M 234.382812 497.96875 C 239.527344 505.910156 239.484375 506.972656 233.507812 518.148438 C 221.375 540.851562 197.613281 547.585938 173.378906 535.1875 C 142.683594 519.445312 141.808594 485.660156 171.859375 476.609375 C 193.117188 470.234375 224.726562 483.070312 234.382812 497.96875 Z M 515.671875 598.839844 C 515.671875 610.320312 513.898438 613.40625 502.953125 620.917969 C 485.722656 632.71875 446.410156 624.304688 431.761719 605.691406 C 412.40625 581.082031 463.230469 552.511719 496.128906 569.519531 C 497.039062 569.480469 515.671875 579.238281 515.671875 598.839844 Z M 515.671875 598.839844 " fill-opacity="1" fill-rule="nonzero"/><g clip-path="url(#833491abd8)"><path fill="#ffffff" d="M 562.527344 258.472656 C 555.546875 264.210938 556.945312 273.695312 565.632812 279.476562 C 572.480469 284.042969 575.875 283.617188 607.210938 274.34375 C 646.933594 262.589844 655.921875 257.597656 655.921875 247.511719 C 655.921875 229.09375 644.132812 228.273438 599.445312 243.589844 C 599.78125 243.589844 567.183594 254.652344 562.527344 258.472656 Z M 562.527344 258.472656 " fill-opacity="1" fill-rule="nonzero"/></g></svg>