<svg xmlns="http://www.w3.org/2000/svg" xmlns:xlink="http://www.w3.org/1999/xlink" width="1024" zoomAndPan="magnify" viewBox="0 0 768 767.999994" height="1024" preserveAspectRatio="xMidYMid meet" version="1.0"><path fill="#ffffff" d="M 209.171875 127.015625 C 40.511719 165.03125 -9.953125 409.867188 210.984375 566.585938 C 265.324219 605.121094 377.109375 653.960938 401.914062 649.996094 C 417.394531 647.535156 428.011719 640.152344 508.4375 575.984375 C 619.574219 487.308594 652.738281 452.777344 678.050781 399.421875 C 699.886719 353.351562 708.507812 292.875 699.089844 251.703125 C 687.058594 199.152344 641.648438 155.410156 584.886719 141.632812 C 562.300781 136.160156 511.523438 136.933594 488.199219 143.140625 C 429.367188 158.726562 400.175781 189.96875 394.117188 189.96875 C 393.007812 189.96875 384.75 183 375.542969 174.292969 C 331.269531 132.453125 266.574219 114.035156 209.148438 127 Z M 293.886719 163.882812 C 329.800781 176.230469 360.445312 199.738281 372.328125 224.066406 C 379.375 238.5 392.398438 242.847656 399.921875 233.28125 C 421.109375 206.34375 462.722656 181.125 498.324219 173.648438 C 509.289062 171.339844 530.097656 170.347656 548.515625 171.25 C 576.757812 172.628906 582.433594 174 603.921875 184.652344 C 632.164062 198.640625 650.667969 217.953125 661.140625 244.335938 C 671.878906 271.453125 671.164062 320.804688 659.523438 356.117188 C 639.75 416.132812 605.164062 455.242188 491.285156 546.351562 C 409.972656 611.441406 404.015625 615.648438 393.054688 615.648438 C 373.929688 615.648438 280.394531 572.105469 235.273438 542.195312 C 51.957031 420.636719 61.074219 203.121094 208.863281 162.410156 C 248.488281 151.488281 298.933594 163.882812 293.886719 163.882812 Z M 293.886719 163.882812 " fill-opacity="1" fill-rule="nonzero"/><path fill="#ffffff" d="M 408.375 310.058594 C 385.140625 337.382812 382.511719 347.160156 396.417969 354.640625 C 405.304688 359.421875 410.824219 355.808594 428.402344 333.699219 C 444.765625 313.121094 447.859375 304.089844 440.925781 297.152344 C 426.84375 283.070312 409.851562 310.058594 408.375 310.058594 Z M 408.375 310.058594 " fill-opacity="1" fill-rule="nonzero"/><path fill="#ffffff" d="M 496.488281 346.453125 C 451.667969 368.621094 441.421875 377.78125 447.875 389.898438 C 453.445312 400.363281 464.257812 397.996094 505.09375 377.386719 C 545.933594 356.78125 555.335938 349.140625 553.640625 338 C 551.382812 323.011719 540.707031 324.585938 496.503906 346.453125 Z M 496.488281 346.453125 " fill-opacity="1" fill-rule="nonzero"/><path fill="#ffffff" d="M 237.105469 370.421875 C 207.394531 379.835938 197.199219 417.226562 214.277344 454.082031 C 226.113281 479.59375 262.890625 514.988281 292.96875 529.804688 C 320.292969 543.265625 346.894531 551.121094 365.105469 551.121094 C 383.867188 551.121094 396.539062 536.6875 407.714844 502.605469 C 414.640625 481.515625 416.75 468.664062 416.980469 446.25 C 417.261719 420.148438 416.417969 415.75 408.585938 402.484375 C 392.8125 375.769531 364.488281 369.34375 337.8125 386.335938 C 329.824219 391.429688 322.003906 397.425781 320.773438 399.421875 C 319.238281 401.875 314.785156 399.867188 307.417969 393.394531 C 284.703125 373.378906 256.703125 364.238281 237.125 370.441406 Z M 269.945312 407.503906 C 287.542969 416.730469 299.714844 441.488281 323.359375 441.488281 C 341.269531 441.488281 340.222656 409.242188 368.789062 409.242188 C 387.65625 409.242188 391.472656 446.707031 376.988281 489.703125 C 366.84375 519.832031 366.101562 520.246094 339.628906 512.140625 C 230.765625 478.816406 214.886719 378.625 269.945312 407.503906 Z M 269.945312 407.503906 " fill-opacity="1" fill-rule="nonzero"/><path fill="#ffffff" d="M 454.429688 441.796875 C 454.429688 453.53125 466.09375 457.53125 494.335938 455.484375 C 523.804688 453.34375 534.855469 448.191406 534.855469 436.578125 C 534.855469 422.640625 526.875 420.757812 484.820312 424.960938 C 489.238281 424.976562 454.429688 424.707031 454.429688 441.796875 Z M 454.429688 441.796875 " fill-opacity="1" fill-rule="nonzero"/></svg>