<svg xmlns="http://www.w3.org/2000/svg" xmlns:xlink="http://www.w3.org/1999/xlink" width="1024" zoomAndPan="magnify" viewBox="0 0 768 767.999994" height="1024" preserveAspectRatio="xMidYMid meet" version="1.0"><defs><clipPath id="0e65110189"><path d="M 133 75 L 640.289062 75 L 640.289062 689 L 133 689 Z M 133 75 " clip-rule="nonzero"/></clipPath></defs><g clip-path="url(#0e65110189)"><path fill="#ffffff" d="M 193.601562 115.375 C 197.113281 148.417969 190.042969 205.089844 156.996094 408.792969 C 129.113281 580.679688 128.015625 597.160156 142.914062 620.011719 C 161.722656 648.851562 209.289062 664.613281 321.222656 679.085938 C 387.300781 687.625 428 690.578125 442.289062 687.875 C 479.882812 680.769531 489.039062 635.441406 601.800781 316.363281 C 635.414062 221.253906 640.269531 204.285156 640.269531 181.921875 C 640.269531 161.171875 633.160156 149.25 614.914062 139.394531 C 565.402344 112.65625 342.453125 95.6875 230.597656 77.917969 C 211.171875 74.832031 212.304688 74.804688 204.703125 78.414062 C 208.671875 78.414062 189.558594 77.230469 193.601562 115.375 Z M 362.214844 124.625 C 572.863281 150.949219 605.671875 157.839844 610.546875 176.78125 C 613.425781 188.046875 606.742188 213.425781 584.144531 277.011719 C 553.710938 362.664062 480.46875 578.808594 455.953125 633.210938 C 442.773438 662.433594 441.78125 662.761719 384.601562 656.886719 C 257.027344 643.796875 192.332031 629.203125 172.066406 608.957031 L 163.171875 600.074219 C 168.773438 487.261719 193.507812 387.847656 212.390625 240.65625 C 219.164062 187.835938 220.261719 138.226562 221.433594 105.945312 C 242.75 110.199219 363.730469 124.644531 362.222656 124.644531 Z M 362.214844 124.625 " fill-opacity="1" fill-rule="nonzero"/></g><path fill="#ffffff" d="M 379.753906 219.503906 C 349.546875 225.492188 323.40625 247.722656 315.582031 274.0625 C 309.992188 292.9375 310.25 301.277344 317.082031 321.484375 C 320.273438 330.917969 321.800781 339.988281 320.53125 341.972656 C 309.191406 359.300781 281.644531 384.453125 298.550781 403.429688 C 304.84375 410.476562 335.496094 425.902344 343.320312 425.941406 C 356.625 426.019531 372.523438 409.894531 387.558594 381.070312 C 392.429688 371.710938 395.199219 376.179688 398.6875 398.804688 C 402.820312 425.75 409.417969 432.304688 433.980469 433.832031 C 455.8125 435.21875 471.0625 430.84375 477.261719 421.414062 C 482.933594 412.796875 481.296875 394.476562 472.351562 366.449219 C 466.503906 348.132812 466.398438 346.433594 470.71875 341.660156 C 495.105469 314.753906 491.941406 234.359375 413.480469 219.320312 C 396.753906 216.113281 396.753906 216.113281 379.738281 219.476562 Z M 422.90625 252.949219 C 467.78125 273.71875 465.523438 327.757812 419.128906 343.433594 C 393.507812 352.097656 362.183594 341.714844 349.664062 320.410156 C 322.164062 273.632812 377.179688 231.78125 422.914062 252.949219 Z M 343.613281 393.710938 C 339.027344 395.460938 322.574219 389.746094 322.574219 386.386719 C 322.574219 383.625 339.734375 361.832031 342.796875 357.832031 C 349.785156 361.996094 359.527344 367.421875 359.484375 370.765625 C 361.375 370.792969 349.546875 391.46875 343.613281 393.738281 Z M 453.386719 406.074219 C 427.035156 406.074219 424.527344 408.382812 424.527344 385.054688 C 424.527344 374.816406 425.59375 372.8125 432.347656 370.371094 C 439.625 367.726562 440.476562 368.214844 444.75 377.636719 C 450.882812 391.171875 453.445312 406.367188 453.386719 406.074219 Z M 453.386719 406.074219 " fill-opacity="1" fill-rule="nonzero"/><path fill="#ffffff" d="M 265.125 467.242188 C 260.917969 471.445312 263.230469 485.285156 268.625 488.1875 C 271.734375 489.851562 304.5 496.332031 341.183594 502.539062 C 403.21875 513.035156 408.570312 513.535156 414.949219 509.414062 C 418.726562 506.972656 421.828125 502.660156 421.828125 499.84375 C 421.828125 488.722656 412.929688 485.765625 348.460938 475.511719 C 285.078125 465.425781 268.582031 463.785156 265.105469 467.242188 Z M 265.125 467.242188 " fill-opacity="1" fill-rule="nonzero"/><path fill="#ffffff" d="M 273.882812 526.523438 C 267.691406 539.871094 275.101562 542.984375 348.730469 557.917969 C 421.023438 572.609375 425.148438 572.609375 426.894531 558.070312 C 427.503906 552.949219 425.84375 549.550781 421.285156 546.589844 C 414.292969 542.050781 302.070312 519.273438 286.699219 519.273438 C 273.941406 519.246094 274.972656 526.523438 273.882812 526.523438 Z M 273.882812 526.523438 " fill-opacity="1" fill-rule="nonzero"/></svg>