<svg xmlns="http://www.w3.org/2000/svg" xmlns:xlink="http://www.w3.org/1999/xlink" width="1024" zoomAndPan="magnify" viewBox="0 0 768 767.999994" height="1024" preserveAspectRatio="xMidYMid meet" version="1.0"><path fill="#ffffff" d="M 432.988281 119.007812 C 425.605469 126.488281 411.796875 154.238281 381.519531 207.75 C 346.535156 269.566406 336.613281 291.957031 321.464844 305.347656 C 276.539062 345.074219 157.117188 385.984375 135.695312 401.640625 C 129.957031 405.8125 123.769531 413.792969 120.015625 421.820312 C 114.542969 433.519531 111.625 436.273438 95.09375 445.382812 C 65.589844 461.632812 65.011719 466.195312 86.417969 513.847656 C 103.34375 551.535156 118.453125 573.65625 131.558594 579.921875 C 139.308594 583.636719 142.257812 583.738281 157.332031 580.824219 C 179.242188 576.589844 175.449219 576.929688 217.390625 581.199219 C 232.476562 613.402344 249.230469 654.347656 267.234375 657.824219 C 276.710938 659.65625 300.035156 655.097656 311.730469 649.140625 C 337.523438 635.980469 326.460938 615.675781 301.882812 541.929688 C 299.816406 535.734375 336.050781 516.523438 341.394531 516.523438 C 348.675781 516.523438 379.796875 496.921875 396.101562 494.035156 C 404.152344 492.605469 435.003906 494.214844 495.546875 499.207031 C 629.519531 510.261719 628.773438 510.222656 631.933594 506.070312 C 638.496094 497.476562 640.148438 483.703125 636.773438 466.195312 C 619.882812 378.472656 586.972656 332.707031 586.972656 326.515625 C 586.972656 325.765625 591.351562 322.9375 596.9375 320.125 C 621.015625 307.910156 621.675781 286.042969 598.644531 263.902344 C 589.042969 254.667969 579.679688 252.84375 561.925781 256.746094 L 553.660156 258.5625 C 535.582031 222.515625 517.21875 183.144531 474.441406 137.96875 C 449.125 111.222656 443.292969 108.550781 432.988281 119.007812 Z M 551.167969 313.75 C 593.925781 403.203125 597.898438 413.9375 611.402344 475.675781 L 612.730469 481.757812 C 460.117188 469.34375 453.355469 469.765625 383.953125 469.34375 L 365.464844 478.050781 C 344.042969 488.140625 348.765625 490.738281 324.433594 455.484375 C 306.128906 428.980469 293.25 403.792969 286.015625 380.34375 C 283.03125 370.621094 280.605469 362.519531 280.605469 362.113281 C 280.605469 358.058594 338.667969 335.640625 361.230469 296.710938 C 411.972656 209.191406 433.683594 168.640625 447.167969 143.558594 C 498.566406 200.597656 508.214844 223.875 551.167969 313.75 Z M 589.652344 294.070312 C 589.652344 296.257812 576.804688 303.109375 575.515625 301.609375 C 571.988281 297.476562 566.613281 283.59375 567.8125 281.671875 C 570.757812 276.929688 581.226562 279.238281 585.441406 285.558594 C 585.699219 285.546875 589.652344 292.371094 589.652344 294.058594 Z M 262.695312 388.394531 C 267.226562 406.828125 286.144531 445.046875 303.609375 471.058594 C 316.5 490.269531 318.671875 494.984375 315.871094 497.710938 C 309.816406 503.609375 231.5 549.628906 220.3125 553.863281 C 207.546875 558.699219 206.785156 557.441406 182.871094 551.046875 L 131.582031 459.871094 C 134.5625 451.046875 140.28125 432.351562 146.429688 425.351562 C 151.054688 420.085938 248.777344 376.710938 256.804688 376.359375 C 259.308594 376.253906 263 388.394531 262.695312 388.394531 Z M 132.535156 512.023438 C 153.015625 550.1875 154.492188 553.921875 150.046875 556.0625 C 140.8125 560.5 126.375 540.59375 109.605469 500.234375 C 99.691406 476.410156 99.28125 474.488281 103.480469 471.421875 C 105.914062 469.632812 108.484375 468.644531 109.074219 469.234375 C 109.664062 469.824219 132.792969 512.023438 132.535156 512.023438 Z M 300.183594 624.988281 C 299.449219 626.867188 293.5 629.707031 286.933594 631.308594 C 277.449219 633.636719 274.175781 633.539062 270.890625 630.855469 C 266.847656 627.558594 242.378906 578.796875 242.441406 574.203125 C 242.480469 571.980469 271.375 553.332031 275.996094 552.570312 C 277.925781 552.179688 301.96875 620.421875 300.183594 624.988281 Z M 300.183594 624.988281 " fill-opacity="1" fill-rule="nonzero"/><path fill="#ffffff" d="M 558.753906 165.683594 C 555.621094 169.480469 556.449219 190.238281 560.542969 210.664062 C 562.789062 221.847656 572.578125 225.871094 579.914062 218.625 C 585 213.597656 585.117188 212.246094 582.347656 191.09375 C 580.753906 178.933594 578.058594 167.191406 576.382812 165.199219 C 572.535156 160.554688 562.71875 160.820312 558.710938 165.683594 Z M 558.753906 165.683594 " fill-opacity="1" fill-rule="nonzero"/><path fill="#ffffff" d="M 636.28125 177.839844 C 626.371094 188.785156 612.503906 211.476562 612.503906 216.742188 C 612.503906 223.738281 617.121094 228.167969 624.433594 228.167969 C 633.144531 228.167969 656.191406 190.597656 657.527344 185.378906 C 660.734375 172.738281 645.730469 167.410156 636.28125 177.839844 Z M 636.28125 177.839844 " fill-opacity="1" fill-rule="nonzero"/><path fill="#ffffff" d="M 654.574219 237.761719 C 636.085938 247.621094 631.421875 254.675781 638.070312 262.695312 C 642.753906 268.34375 650.195312 267.011719 671.105469 256.78125 C 689.59375 247.734375 690.316406 247.035156 690.316406 238.382812 C 690.316406 229.871094 689.839844 229.355469 681.441406 228.777344 C 670.496094 228.03125 655.367188 237.761719 654.574219 237.761719 Z M 654.574219 237.761719 " fill-opacity="1" fill-rule="nonzero"/><path fill="#ffffff" d="M 652.386719 292.824219 C 645.078125 298.136719 648.007812 307.84375 658.460938 312.96875 C 673.785156 320.46875 691.175781 324.226562 696.152344 321.101562 C 701.519531 317.746094 703.234375 308.246094 699.34375 303.5625 C 696.84375 300.550781 665.273438 289.460938 659.191406 289.460938 C 656.988281 289.4375 652.628906 292.824219 652.386719 292.824219 Z M 652.386719 292.824219 " fill-opacity="1" fill-rule="nonzero"/><path fill="#ffffff" d="M 628.070312 329.335938 C 619.625 335.300781 621.511719 341.753906 634.875 352.695312 C 660.652344 373.785156 668.945312 377.425781 675.726562 370.648438 C 682.675781 363.699219 679.132812 355.964844 663.328125 343.574219 C 642.414062 327.183594 635.234375 324.285156 628.070312 329.335938 Z M 628.070312 329.335938 " fill-opacity="1" fill-rule="nonzero"/><path fill="#ffffff" d="M 447.167969 213.230469 C 441.484375 218.804688 443.667969 226.945312 457.015625 250.054688 C 498.726562 322.210938 529.179688 424.621094 545.878906 424.621094 C 551.195312 424.621094 557.09375 417.085938 556.910156 410.519531 C 556.726562 403.953125 533.652344 349.003906 505.980469 289.460938 C 494.683594 265.148438 465.554688 215.109375 461.015625 212.226562 C 456.640625 209.449219 450.574219 209.894531 447.15625 213.253906 Z M 447.167969 213.230469 " fill-opacity="1" fill-rule="nonzero"/></svg>