<svg xmlns="http://www.w3.org/2000/svg" xmlns:xlink="http://www.w3.org/1999/xlink" width="1024" zoomAndPan="magnify" viewBox="0 0 768 767.999994" height="1024" preserveAspectRatio="xMidYMid meet" version="1.0"><path fill="#ffffff" d="M 376.390625 84.6875 C 357.398438 93.359375 354.652344 98.476562 355.09375 124.4375 C 355.460938 146.539062 355.265625 147.167969 347.519531 148.84375 C 296.761719 159.792969 257.847656 188.59375 255.585938 186.316406 C 255.253906 185.984375 250.648438 178.367188 245.269531 169.226562 C 235.542969 152.726562 235.542969 152.726562 241.3125 144.472656 C 260.101562 117.535156 244.679688 88.195312 211.679688 88.195312 C 192.820312 88.1875 168.492188 101.917969 157.949219 118.539062 C 136.09375 152.984375 155.984375 180.042969 201.066406 177.195312 C 217.691406 176.148438 215.03125 175.410156 232.007812 206.640625 L 215.472656 223.414062 C 92.777344 348.125 132.117188 580.132812 313.042969 652.058594 C 465.59375 712.695312 650.890625 617.925781 667.324219 429.96875 C 673.222656 362.488281 645.152344 281.417969 598.042969 229.898438 L 582.953125 213.398438 L 605.648438 187.761719 L 620.101562 191.035156 C 645.441406 196.78125 662.832031 183.578125 662.832031 158.585938 C 662.832031 134.960938 631.890625 108.890625 603.304688 108.445312 C 589.753906 108.226562 586.949219 109.363281 578.992188 118.222656 C 568.402344 130.015625 567.3125 140.628906 574.765625 159.179688 C 579.738281 171.550781 579.738281 171.550781 570.960938 182.160156 C 560.484375 194.832031 559.492188 195.070312 548.796875 187.523438 C 524.019531 170.070312 464.097656 146.800781 443.859375 146.800781 C 437.144531 146.800781 436.785156 145.621094 436.785156 123.527344 C 436.785156 99.070312 431.882812 84.21875 422.640625 80.664062 C 412.941406 76.933594 388.757812 79.035156 376.382812 84.6875 Z M 405.300781 126.027344 C 404.289062 144.710938 404.816406 142.347656 384.378906 144.152344 C 384.378906 114.40625 382.839844 110.621094 399.113281 109.960938 C 405.734375 109.695312 406.125 110.683594 405.300781 126.027344 Z M 209.027344 135.164062 C 202.339844 144.59375 198.847656 146.800781 190.457031 146.800781 C 175.121094 146.800781 177.5 136.050781 195.472656 124.132812 C 203.136719 119.074219 217.273438 117.320312 217.273438 121.460938 C 217.863281 121.429688 214.292969 127.726562 209.027344 135.164062 Z M 616.25 142.296875 C 624.199219 146.464844 633.828125 158.332031 631.28125 160.839844 C 629.246094 162.84375 605.855469 153.28125 603.421875 149.453125 C 599.859375 143.859375 600.246094 137.671875 604.144531 137.671875 C 607.042969 137.671875 616.597656 142.296875 616.25 142.296875 Z M 459.761719 182.710938 C 602.574219 220.90625 675.523438 381.753906 611.6875 510.40625 C 514.394531 706.550781 235.789062 666.925781 182.644531 456.484375 C 177.074219 434.417969 176.292969 424.367188 177.730469 393.128906 C 182.863281 281.832031 257.234375 197.996094 368.144531 177.710938 C 401.515625 171.601562 466.222656 182.710938 459.761719 182.710938 Z M 459.761719 182.710938 " fill-opacity="1" fill-rule="nonzero"/><path fill="#ffffff" d="M 227.644531 321.53125 C 214.027344 349.8125 202.824219 397.511719 207.644531 406.390625 C 211.628906 413.757812 226.828125 415.40625 232.117188 409.042969 C 237.40625 402.683594 244.214844 357.730469 257.414062 330.664062 C 268.484375 307.980469 296.609375 273.960938 318.347656 256.949219 C 335.433594 243.585938 339.308594 237.226562 336.222656 227.519531 C 326.457031 196.816406 251.949219 270.933594 227.644531 321.53125 Z M 227.644531 321.53125 " fill-opacity="1" fill-rule="nonzero"/><path fill="#ffffff" d="M 505.019531 255.082031 C 487.738281 272.363281 509.601562 264.140625 538.511719 319.765625 C 553.6875 348.9375 558.292969 354.242188 568.511719 354.242188 C 604.734375 354.242188 539.847656 256.71875 518.128906 250.644531 C 510 248.378906 505.554688 255.082031 505.019531 255.082031 Z M 505.019531 255.082031 " fill-opacity="1" fill-rule="nonzero"/><path fill="#ffffff" d="M 390.535156 309.339844 C 390.535156 365.539062 390.609375 342.214844 368.730469 365.03125 C 359.871094 374.273438 358.238281 378.285156 357.09375 393.609375 C 355.972656 408.640625 356.9375 413.121094 363.179688 422.34375 C 375.097656 439.863281 391.425781 447.601562 413.519531 446.191406 C 423.832031 445.542969 434.183594 444.105469 436.800781 442.953125 C 439.90625 441.597656 458.902344 454.625 492.492188 481.15625 C 543.46875 521.425781 553.875 526.839844 562.917969 517.800781 C 564.992188 515.726562 566.75 510.730469 566.75 506.902344 C 566.75 497.121094 545.066406 480.804688 466.5625 419.386719 C 466.046875 385.152344 467.109375 381.40625 457.128906 368.261719 C 446.75 354.601562 430.980469 348.988281 421.457031 344.808594 C 421.457031 332.566406 422.300781 265.628906 418.269531 258.183594 C 413.207031 248.789062 397.308594 249.929688 393.515625 259.949219 C 394.34375 259.949219 390.535156 261.183594 390.535156 309.339844 Z M 436.792969 396.707031 C 436.792969 404.296875 422.0625 416.148438 412.628906 416.148438 C 401.730469 416.148438 387.289062 405.410156 387.289062 397.292969 C 387.289062 380.199219 415.578125 372.628906 429.722656 385.933594 C 430.273438 385.894531 436.800781 393.390625 436.800781 396.671875 Z M 436.792969 396.707031 " fill-opacity="1" fill-rule="nonzero"/><path fill="#ffffff" d="M 576.121094 391.070312 C 571.726562 399.316406 571.980469 432.539062 576.46875 437.035156 C 581.695312 442.253906 590.027344 441.792969 595.917969 435.945312 C 601.808594 430.097656 602.707031 394.621094 597.082031 389.011719 C 591.234375 383.164062 579.738281 384.292969 576.121094 391.070312 Z M 576.121094 391.070312 " fill-opacity="1" fill-rule="nonzero"/><path fill="#ffffff" d="M 236.539062 504.507812 C 245.726562 519.542969 251.820312 526.320312 256.777344 527.007812 C 265.617188 528.234375 272.980469 522.433594 272.980469 514.238281 C 272.980469 507.457031 249.855469 465.871094 243.8125 461.78125 C 238.804688 458.390625 231.214844 459.058594 227.015625 463.261719 C 228.84375 463.277344 213.304688 466.5 236.539062 504.507812 Z M 236.539062 504.507812 " fill-opacity="1" fill-rule="nonzero"/><path fill="#ffffff" d="M 319.199219 561.378906 C 312.015625 574.894531 324.261719 584.136719 371.09375 600.617188 C 399.085938 610.460938 406.589844 609.289062 408.308594 594.675781 C 409.507812 584.449219 403.796875 580.703125 365.195312 566.417969 C 330.722656 553.652344 323.726562 552.886719 319.199219 561.359375 Z M 319.199219 561.378906 " fill-opacity="1" fill-rule="nonzero"/></svg>