<svg xmlns="http://www.w3.org/2000/svg" xmlns:xlink="http://www.w3.org/1999/xlink" width="1024" zoomAndPan="magnify" viewBox="0 0 768 767.999994" height="1024" preserveAspectRatio="xMidYMid meet" version="1.0"><defs><clipPath id="1f174d1a3c"><path d="M 82 150 L 691.570312 150 L 691.570312 626 L 82 626 Z M 82 150 " clip-rule="nonzero"/></clipPath></defs><g clip-path="url(#1f174d1a3c)"><path fill="#ffffff" d="M 354.011719 155.292969 C 345.390625 161.523438 345.496094 177.683594 342.398438 220.050781 C 321.101562 223.609375 287.5625 228.246094 260.765625 239.09375 L 237.902344 248.347656 C 222.011719 205.632812 219.554688 195.738281 205.617188 195.738281 C 186.582031 195.738281 184.117188 208.4375 196.558594 242.539062 L 204.886719 265.378906 C 175.121094 285.625 141.703125 313.921875 137.769531 311.457031 C 136.140625 310.433594 131.496094 303.109375 127.199219 294.765625 C 117.097656 275.1875 103.703125 266.164062 93.140625 271.851562 C 74.355469 281.96875 95.453125 312.882812 112.007812 343.039062 C 103.996094 350.613281 94.929688 358.078125 87.339844 372.40625 C 80.929688 384.507812 80.984375 385.105469 90.238281 403.605469 C 101.246094 425.621094 118.71875 443.828125 130.152344 456.578125 L 117.105469 473.613281 C 99.902344 496.109375 100.347656 513.308594 118.175781 515.070312 C 129.492188 516.183594 136.320312 510.257812 156.332031 481.957031 C 157.765625 479.929688 190.941406 503.929688 215.957031 516.058594 C 225.746094 520.8125 233.917969 526.007812 233.917969 527.484375 C 233.917969 528.960938 230.507812 541.089844 226.300781 554.519531 C 216.511719 585.71875 216.617188 598.0625 226.65625 603.460938 C 258.78125 620.734375 261.191406 534.941406 275.601562 540.601562 C 297.824219 549.25 385.605469 558.222656 385.210938 558.148438 C 390.222656 607.441406 390.550781 625.996094 406.617188 625.996094 C 426.398438 625.996094 424.414062 611.105469 424.414062 554.894531 L 447.632812 552.171875 C 485.3125 547.722656 515.398438 534.078125 519.839844 536.925781 C 526.523438 541.242188 528.765625 591.964844 551.386719 591.964844 C 570.734375 591.964844 573.269531 579.265625 561.175781 543.023438 C 556.824219 529.957031 553.773438 518.746094 554.46875 518.355469 L 611.253906 481.34375 C 641.214844 528.320312 649.6875 545.167969 667.488281 538.421875 C 688.96875 530.289062 662.929688 494.433594 640.273438 458.128906 C 689.148438 412.746094 691.070312 413.722656 691.070312 393.914062 C 691.070312 374.453125 691.605469 377.390625 619.234375 306.476562 C 646.671875 273.265625 671.582031 247.742188 655.152344 234.21875 C 644.839844 225.710938 631.292969 233.183594 611.003906 258.582031 C 600.28125 271.929688 591.007812 283.179688 590.75 283.179688 C 588.96875 283.179688 514.953125 243.800781 501.5 240.367188 L 492.972656 238.1875 C 508.148438 204.371094 531.597656 161.273438 498.046875 161.273438 C 488.007812 161.273438 482.117188 169.28125 469.925781 199.371094 C 465.226562 210.9375 460.1875 221.875 458.683594 223.671875 C 455.179688 227.882812 388.648438 218.484375 377.949219 217.140625 C 381.742188 181.125 383.957031 170.324219 376.9375 159.457031 C 365.855469 142.320312 355.683594 155.292969 354.011719 155.292969 Z M 442.542969 266.644531 C 509.660156 280.464844 563.109375 309.597656 619.636719 363.160156 C 647.9375 389.988281 650.339844 393.355469 645.445312 399.269531 C 630.921875 416.820312 557.242188 471.351562 529.664062 485.019531 C 485.675781 506.769531 460.730469 512.605469 403.046875 514.742188 C 328.667969 517.464844 272.113281 504.0625 214.738281 470.097656 C 186.441406 453.347656 140.242188 412.066406 129.796875 394.191406 L 122.578125 381.855469 C 173.625 334.160156 228.175781 287.085938 300.367188 268.128906 C 360.800781 252.246094 449.289062 266.644531 442.542969 266.644531 Z M 442.542969 266.644531 " fill-opacity="1" fill-rule="nonzero"/></g><path fill="#ffffff" d="M 338.046875 293.179688 C 317.363281 300.824219 288.859375 326.105469 278.886719 345.683594 C 274.433594 354.324219 270.109375 371.808594 269.097656 384.835938 C 267.59375 404.414062 268.882812 411.925781 276.742188 429.101562 C 327.339844 539.722656 499.96875 510.851562 500.367188 393.523438 C 500.511719 352.160156 479.199219 319.234375 438.546875 298.03125 C 417.367188 286.988281 362.011719 284.300781 338.046875 293.144531 Z M 418.59375 332.460938 C 473.769531 357.445312 476.4375 424.820312 423.308594 450.539062 C 365.980469 478.273438 293.140625 429.667969 309.660156 374.691406 C 315.21875 356.191406 334.675781 335.902344 352.195312 330.332031 C 386.816406 319.351562 420.871094 332.460938 418.59375 332.460938 Z M 418.59375 332.460938 " fill-opacity="1" fill-rule="nonzero"/></svg>