<svg xmlns="http://www.w3.org/2000/svg" xmlns:xlink="http://www.w3.org/1999/xlink" width="1024" zoomAndPan="magnify" viewBox="0 0 768 767.999994" height="1024" preserveAspectRatio="xMidYMid meet" version="1.0"><defs><clipPath id="56d3b2333b"><path d="M 73.539062 96 L 690 96 L 690 670 L 73.539062 670 Z M 73.539062 96 " clip-rule="nonzero"/></clipPath></defs><g clip-path="url(#56d3b2333b)"><path fill="#ffffff" d="M 281.773438 101.550781 C 276.035156 107.285156 273.71875 129.726562 272.453125 138.5 C 220.589844 143.140625 157.433594 149.164062 119.441406 190.355469 C 85.988281 226.621094 73.621094 275.734375 73.621094 372.304688 C 73.621094 485.632812 95.574219 591.019531 128.015625 633.429688 C 149.191406 661.113281 201.617188 672.734375 289.558594 669.226562 C 399.851562 664.847656 560.597656 649.890625 599.300781 640.40625 C 653.402344 627.15625 679.308594 597.089844 687.136719 538.402344 C 691.441406 506.113281 688.902344 196.015625 684.1875 178.535156 C 682.433594 172.019531 675.804688 161.667969 669.359375 155.40625 C 657.929688 144.289062 657.082031 144.046875 624.460938 142.371094 L 591.222656 140.664062 C 589.636719 121.273438 590.308594 106.507812 574.457031 106.507812 C 558.746094 106.507812 560.171875 129.796875 560.171875 139.109375 L 444.292969 137.585938 C 441.671875 109.113281 441.671875 103.101562 430.242188 103.101562 C 411.554688 103.101562 413.476562 116.894531 413.476562 135.707031 L 305.691406 135.707031 C 305.691406 128.660156 306.675781 105.660156 301.742188 100.621094 C 296.484375 95.242188 287.675781 95.65625 281.773438 101.550781 Z M 269.96875 178.550781 C 269.96875 189.730469 276.0625 197.804688 284.566406 197.804688 C 293.164062 197.804688 302.589844 187.25 302.589844 177.621094 C 302.589844 170.835938 309.1875 171.726562 413.5 171.726562 C 413.5 185.003906 412.152344 193.675781 420.359375 198.023438 C 430.332031 203.355469 442.730469 194.082031 442.730469 181.347656 L 442.730469 171.726562 L 553.609375 171.726562 C 553.609375 208.40625 551.804688 226.996094 566.96875 226.996094 C 584.738281 226.996094 585.1875 191.203125 587.160156 171.726562 C 634.0625 171.726562 636.121094 170.601562 645.074219 180.105469 C 651.929688 187.410156 653.152344 192.214844 654.21875 217.371094 C 655.640625 251.457031 662.332031 247.503906 592.746094 253.597656 C 560.550781 256.414062 477.796875 257.777344 332.710938 257.886719 C 121.460938 258.039062 119.921875 257.992188 121.894531 251.519531 C 144.640625 177.179688 236.53125 177.980469 267.484375 172.191406 C 269.570312 171.796875 270.296875 178.550781 269.96875 178.550781 Z M 596.792969 604.988281 C 555.597656 617.171875 414.429688 630.605469 294.816406 633.757812 C 184.84375 636.652344 162.890625 631.132812 145.464844 596.167969 C 135.101562 575.375 122.101562 528.175781 114.34375 483.148438 C 105.398438 431.226562 108.863281 299.421875 110.746094 294.523438 C 115.746094 281.523438 479.246094 298.253906 579.707031 288.003906 C 630.511719 282.820312 640.84375 282.972656 653.625 282.566406 C 658.683594 556.3125 663.589844 585.261719 596.792969 604.988281 Z M 596.792969 604.988281 " fill-opacity="1" fill-rule="nonzero"/></g><path fill="#ffffff" d="M 413.476562 375.640625 C 226.382812 392.5625 207.8125 381.488281 207.8125 401.183594 C 207.8125 415.988281 214.667969 417.824219 266.210938 416.902344 C 327.414062 415.8125 534.230469 401.023438 544.886719 396.976562 C 555.757812 392.84375 559.011719 381.65625 551.703125 373.542969 C 539.148438 359.585938 435.117188 375.640625 413.476562 375.640625 Z M 413.476562 375.640625 " fill-opacity="1" fill-rule="nonzero"/><path fill="#ffffff" d="M 260.953125 491.761719 C 255.15625 496.628906 255.671875 509.203125 261.890625 514.390625 C 269.9375 521.121094 507.476562 491.757812 514.152344 488.214844 C 524.464844 482.746094 523.472656 465.929688 512.628906 461.75 C 501.785156 457.570312 506.730469 457.089844 377.800781 473.660156 C 378.105469 473.660156 265.160156 488.238281 260.953125 491.761719 Z M 260.953125 491.761719 " fill-opacity="1" fill-rule="nonzero"/></svg>