<svg xmlns="http://www.w3.org/2000/svg" xmlns:xlink="http://www.w3.org/1999/xlink" width="1024" zoomAndPan="magnify" viewBox="0 0 768 767.999994" height="1024" preserveAspectRatio="xMidYMid meet" version="1.0"><defs><clipPath id="1ee5c28789"><path d="M 58.355469 214 L 708 214 L 708 572 L 58.355469 572 Z M 58.355469 214 " clip-rule="nonzero"/></clipPath></defs><g clip-path="url(#1ee5c28789)"><path fill="#ffffff" d="M 213.757812 217.609375 C 179.199219 229.972656 154.605469 260.976562 150.019531 297.972656 L 148.226562 312.441406 L 133.976562 311.621094 C 103.824219 309.875 78.734375 323.773438 65.25 349.675781 C 59.554688 360.640625 58.695312 365.328125 58.582031 385.964844 C 58.484375 405.160156 59.507812 411.929688 63.945312 421.535156 C 71.40625 437.664062 89.496094 456.152344 105.238281 463.75 C 136.011719 478.601562 189.191406 483.78125 210.65625 486.277344 L 218.691406 503.117188 C 234.222656 535.695312 263.363281 556.992188 306.109375 567.015625 C 332.753906 573.261719 436.46875 573.285156 489.65625 567.046875 C 542.652344 560.835938 589.199219 558.769531 634.257812 532.34375 C 657.054688 518.964844 687.046875 488.652344 696.246094 469.683594 C 705.90625 449.757812 709.242188 429.113281 705.683594 411.335938 C 701.648438 391.179688 690.269531 369.582031 674.566406 352.28125 C 638.550781 312.597656 604.457031 313.628906 561.128906 313.628906 L 556.859375 300.578125 C 526.691406 208.351562 455.011719 194.523438 395.171875 241.972656 C 388.28125 247.398438 381.089844 251.203125 378.90625 250.542969 C 376.722656 249.878906 370 247.503906 363.828125 245.214844 C 349.265625 239.804688 324.648438 241.425781 307.546875 248.925781 L 295.203125 254.335938 L 291.480469 248.644531 C 272.402344 219.472656 242.238281 207.429688 213.757812 217.609375 Z M 251.75 244.6875 C 259.199219 249.644531 265.242188 256.707031 279.703125 277.339844 C 293.839844 297.496094 316.855469 261.105469 349.59375 267.5 C 364.078125 270.332031 365.003906 272.238281 357.589844 283.984375 C 342.410156 308.003906 338.828125 327.390625 334.875 344.929688 C 297.058594 343.597656 289.941406 342.496094 273.613281 348.566406 C 238.953125 361.449219 213.042969 399.480469 207.941406 445.011719 L 206.191406 460.664062 L 194.546875 460.664062 C 178.871094 460.664062 132.652344 449.949219 119.273438 443.214844 C 87.703125 427.316406 74.214844 394.070312 87.121094 363.90625 C 96.753906 341.445312 113.0625 333.71875 140.839844 338.460938 C 171.011719 343.613281 171.265625 334.242188 174.421875 309.375 C 178.570312 276.648438 191.550781 256.269531 215.402344 245.0625 C 231.074219 237.699219 241.027344 237.597656 251.726562 244.707031 Z M 549.269531 335.765625 C 552.179688 337.164062 567.324219 338.710938 583.230469 339.257812 C 617.894531 340.421875 632.226562 346.023438 652.621094 366.539062 C 681.234375 395.3125 688.191406 425.351562 673.492188 456.65625 C 653.859375 498.472656 602.9375 528.679688 540.703125 535.414062 C 526.21875 536.984375 510.667969 539.230469 505.800781 540.464844 C 475.128906 548.222656 360.238281 550.441406 322.488281 544 C 279.511719 536.675781 250.589844 516.597656 239.039062 486.070312 C 231.324219 465.667969 232.972656 432.941406 242.738281 412.546875 C 251.253906 394.757812 265.773438 379.726562 280.933594 372.992188 C 291.054688 368.507812 295.417969 368.132812 319.878906 369.632812 C 353.355469 371.695312 354.238281 371.113281 361.496094 341.851562 C 368.691406 312.921875 379.515625 293.0625 398.769531 273.554688 C 419.804688 252.222656 440.769531 241.558594 461.671875 241.558594 C 529.21875 241.53125 526.5625 324.808594 549.269531 335.765625 Z M 549.269531 335.765625 " fill-opacity="1" fill-rule="nonzero"/></g><path fill="#ffffff" d="M 446.203125 304.140625 C 432.804688 318.542969 424.144531 376 432.222656 397.109375 C 440.300781 418.21875 458.898438 425.105469 471.246094 411.574219 C 481.628906 400.210938 484.640625 389.277344 484.496094 363.433594 C 484.25 316.949219 463.773438 285.257812 446.191406 304.140625 Z M 459.894531 372.683594 C 455.816406 405.257812 447.308594 375.644531 455.515625 347.300781 C 458.171875 338.148438 461.671875 358.449219 459.894531 372.683594 Z M 459.894531 372.683594 " fill-opacity="1" fill-rule="nonzero"/><path fill="#ffffff" d="M 535.464844 397.816406 C 527.3125 417.503906 526.976562 454.214844 534.800781 464.714844 C 564.878906 505.003906 608.796875 469.398438 575.878906 397.125 C 562.078125 366.808594 546.636719 370.816406 535.464844 397.816406 Z M 560.777344 431.96875 C 568.4375 469.101562 547.101562 454.65625 552.042969 425.804688 C 555.75 404.355469 561.027344 431.96875 560.777344 431.96875 Z M 560.777344 431.96875 " fill-opacity="1" fill-rule="nonzero"/></svg>