<svg xmlns="http://www.w3.org/2000/svg" xmlns:xlink="http://www.w3.org/1999/xlink" width="1024" zoomAndPan="magnify" viewBox="0 0 768 767.999994" height="1024" preserveAspectRatio="xMidYMid meet" version="1.0"><path fill="#ffffff" d="M 309.484375 228.414062 L 329.179688 239.378906 C 231.488281 245.292969 164.832031 249.070312 157.828125 252.742188 C 151.339844 256.148438 151.339844 255.539062 156.644531 329.550781 C 158.902344 360.972656 162.332031 389.738281 164.234375 393.28125 C 167.6875 399.707031 182.257812 406.492188 192.503906 406.492188 C 198.925781 406.492188 200.035156 419.128906 204.878906 546.886719 C 208.628906 645.859375 208.792969 647.148438 218.960938 656.570312 C 234.660156 671.121094 267.261719 659.933594 596.929688 659.367188 C 625.371094 631.488281 601.6875 649.582031 613.386719 518.539062 C 623.554688 404.769531 613.011719 387.992188 624.707031 387.992188 C 632.261719 387.992188 642.082031 376.949219 647.191406 371.835938 C 642.058594 233.40625 653.082031 237.125 556.667969 236.511719 C 472.496094 236.007812 475.867188 234.386719 502.289062 223.222656 C 539.90625 207.324219 576.5 180.683594 586.175781 162.140625 C 592.769531 149.511719 591.59375 133.511719 583.382812 123.960938 C 577.15625 116.714844 573.125 115.257812 556.371094 114.207031 C 501.402344 110.757812 453.109375 161.011719 415.585938 196.796875 L 403.53125 176.238281 C 387.796875 149.382812 355.628906 119.789062 326.519531 105.382812 C 228.691406 56.9375 168.640625 150.03125 309.484375 228.414062 Z M 378.421875 197.382812 C 388.925781 218.820312 391.363281 227.636719 386.785156 227.636719 C 380.902344 227.636719 337.109375 209.433594 322.121094 200.753906 C 287.734375 180.847656 257.460938 149.980469 257.460938 134.832031 C 257.460938 120.734375 284.503906 120.382812 312.714844 134.113281 C 319.015625 134.097656 364.964844 169.914062 378.421875 197.382812 Z M 556.667969 147.15625 C 556.667969 162.675781 457.238281 209.109375 453.210938 209.109375 C 448.335938 209.109375 474.664062 183.988281 494.351562 169.855469 C 521.097656 150.652344 556.667969 137.683594 556.667969 147.136719 Z M 616.035156 357.125 C 494.640625 357.332031 368.90625 362.808594 275.679688 369.167969 C 230.71875 372.238281 193.050781 373.894531 191.917969 372.851562 C 189.566406 370.691406 181.992188 283.335938 183.988281 281.363281 C 185.078125 280.277344 314.175781 270.890625 372.683594 270.796875 C 331.6875 313.738281 309.785156 320.148438 309.785156 335.699219 C 309.785156 345.390625 319.042969 351.792969 328.300781 348.503906 C 333.863281 346.527344 370.207031 318.484375 404.425781 281.363281 C 414.445312 290.007812 422.015625 298.492188 464.382812 319.890625 C 502.59375 339.1875 510.347656 340.414062 517.960938 328.359375 C 523.46875 319.636719 516.40625 313.425781 477.589844 292.890625 C 457.304688 282.148438 439.535156 272.121094 437.941406 270.5 C 433.898438 266.457031 578.164062 267.5625 606.351562 267.5625 C 611.050781 280.230469 611.5625 276.082031 616.035156 357.125 Z M 578.417969 628.535156 L 434.105469 628.535156 C 429.707031 562.980469 429.839844 552.171875 426.175781 390.933594 L 588.378906 390.933594 C 580.738281 578.113281 578.417969 495.703125 578.417969 628.535156 Z M 400.894531 628.535156 C 308.710938 628.972656 247.800781 634.773438 243.203125 631.175781 C 241.164062 629.578125 238.949219 608.707031 237.625 578.453125 C 234.082031 498.132812 226.808594 405.511719 227.644531 404.4375 C 228 403.992188 341.03125 395.535156 395.617188 394.160156 C 398.761719 477.007812 399.265625 480.34375 400.894531 628.535156 Z M 400.894531 628.535156 " fill-opacity="1" fill-rule="nonzero"/></svg>