<svg xmlns="http://www.w3.org/2000/svg" xmlns:xlink="http://www.w3.org/1999/xlink" width="1024" zoomAndPan="magnify" viewBox="0 0 768 767.999994" height="1024" preserveAspectRatio="xMidYMid meet" version="1.0"><path fill="#ffffff" d="M 89.3125 122.820312 C 80.285156 126.703125 77.09375 137.636719 83.183594 143.742188 C 86.390625 146.949219 94.511719 148.53125 109.328125 148.832031 C 127.917969 149.210938 132.546875 150.464844 143.597656 158.304688 C 174.335938 180.039062 187.289062 224.808594 213.246094 399.140625 C 222.808594 463.355469 229.453125 486.667969 241.1875 497.117188 C 244.855469 500.378906 247 506.378906 247 513.328125 C 247 539.433594 269.941406 565.21875 304.210938 577.625 L 321.644531 583.933594 C 320.414062 602.113281 316.367188 620.605469 342.261719 639.804688 C 355.085938 649.324219 385.539062 650.394531 402.101562 641.941406 C 414.105469 635.785156 430.035156 615.929688 434.632812 601.398438 C 435.933594 597.28125 439.425781 595.882812 448.429688 595.882812 C 458.304688 595.882812 460.984375 597.195312 463.253906 603.144531 C 467.578125 614.476562 485.253906 633.140625 495.917969 637.632812 C 501.382812 639.933594 513.015625 641.785156 522.058594 641.785156 C 549.910156 641.785156 568.097656 624.9375 571.925781 595.589844 C 573.734375 581.644531 574.0625 581.339844 586.550781 579.328125 C 604.558594 576.476562 613.507812 569.816406 612.308594 560.144531 C 610.558594 545.996094 604.84375 545.257812 554.308594 552.605469 C 441.90625 568.953125 370.980469 568.175781 314.984375 550.003906 C 301.042969 545.476562 293.179688 540.644531 284.921875 531.523438 C 278.871094 524.839844 274.34375 518.644531 275.046875 517.984375 C 275.753906 517.320312 287.96875 518.296875 301.910156 520.070312 C 340.832031 525.007812 509.691406 525.195312 530.785156 520.320312 C 555.761719 514.546875 574.175781 501.792969 585.1875 482.550781 C 606.070312 446.105469 657.410156 269.871094 660.703125 223.375 C 662.320312 200.429688 662.128906 199.621094 653.472656 190.835938 C 606.453125 143.230469 247.839844 193.652344 204.910156 182.234375 C 201 181.195312 195.246094 175.148438 191.804688 168.464844 C 183.894531 153.152344 167.417969 136.921875 151.4375 128.691406 C 137.210938 121.371094 100.644531 117.917969 89.3125 122.820312 Z M 477.03125 346.550781 C 470.449219 346.304688 379.628906 343.316406 373.921875 341.027344 C 368.363281 338.804688 365.050781 316.59375 345.601562 254.738281 C 338.023438 230.625 332.203125 210.554688 332.679688 210.09375 C 335.457031 207.632812 514.207031 197.714844 511.589844 206.214844 C 511.90625 206.214844 513.285156 198.332031 477.03125 346.550781 Z M 629.066406 223.976562 C 628.617188 237.335938 607.550781 327.125 603.910156 331.1875 C 601.644531 333.71875 530.179688 345.71875 517.40625 345.71875 C 509.199219 345.71875 508.804688 345.132812 510.714844 335.839844 C 512.78125 325.769531 533.582031 237.644531 543.25 201.605469 C 633.582031 206.585938 629.671875 205.945312 629.066406 223.9375 Z M 338.195312 337.542969 C 288.261719 331.195312 241.851562 320.476562 237.410156 318.101562 C 230.074219 314.175781 225.90625 273.0625 210.980469 214.929688 C 223.5625 214.597656 286.160156 213.085938 294.773438 212.171875 C 300.835938 211.523438 302.660156 214.789062 311.039062 241.226562 C 312.570312 241.226562 338.117188 337.238281 338.195312 337.542969 Z M 278.097656 357.742188 C 337.851562 369.085938 343.980469 364.910156 346.023438 374.132812 C 349.890625 391.5625 365.8125 482.734375 365.8125 487.445312 C 365.8125 492.535156 363.050781 492.789062 330.523438 490.78125 C 311.058594 489.582031 288.390625 486.582031 279.984375 484.101562 C 266.335938 480.070312 264.113281 478.195312 258.789062 466.230469 C 254.453125 456.480469 237.726562 363.957031 237.726562 349.714844 C 237.726562 348.875 239.613281 349.003906 242.226562 350.007812 C 246.636719 351.753906 278.382812 357.742188 278.097656 357.742188 Z M 551.34375 475.851562 C 543.804688 483.832031 519.726562 492.121094 504.039062 492.121094 C 494.457031 492.121094 493.882812 491.558594 493.960938 482.242188 C 494.101562 466.5625 499.789062 397.492188 501.859375 386.363281 C 504.921875 369.878906 504.710938 380.78125 559.515625 371.972656 C 572.878906 369.835938 586.214844 367.855469 588.992188 367.617188 C 593.496094 367.234375 593.191406 370.085938 586.335938 392.460938 C 587.347656 392.460938 563.011719 463.476562 551.34375 475.851562 Z M 469.019531 399.140625 C 465.363281 423.371094 461.894531 494.171875 461.894531 493.859375 C 458.980469 493.808594 402.230469 493.148438 400.316406 491.25 C 399.140625 490.066406 378.117188 381.128906 378.003906 375.609375 C 377.945312 372.929688 466.832031 376.105469 469.730469 378.894531 C 470.445312 378.894531 471.097656 385.5 469.019531 399.140625 Z M 542.671875 592.941406 C 542.671875 600.964844 529.308594 614.148438 521.179688 614.148438 C 509.269531 614.148438 486.75 598.914062 491.550781 594.101562 C 493.453125 592.199219 520.597656 587.816406 534.246094 587.210938 C 540.929688 586.917969 542.671875 588.101562 542.671875 592.910156 Z M 394.988281 609.792969 C 385.363281 619.507812 374.214844 622.082031 362.59375 617.261719 C 351.558594 612.679688 346.371094 604.277344 349.199219 595.554688 C 350.902344 590.28125 352.863281 589.492188 360.414062 591.050781 C 383.339844 595.785156 417.839844 586.726562 394.988281 609.792969 Z M 394.988281 609.792969 " fill-opacity="1" fill-rule="nonzero"/></svg>