<svg xmlns="http://www.w3.org/2000/svg" xmlns:xlink="http://www.w3.org/1999/xlink" width="1024" zoomAndPan="magnify" viewBox="0 0 768 767.999994" height="1024" preserveAspectRatio="xMidYMid meet" version="1.0"><defs><clipPath id="9e74fe7093"><path d="M 92.132812 261 L 588 261 L 588 607 L 92.132812 607 Z M 92.132812 261 " clip-rule="nonzero"/></clipPath></defs><path fill="#ffffff" d="M 498.191406 164.925781 C 493.007812 171.183594 475.816406 219.398438 474.136719 232.433594 C 472.316406 246.496094 476.519531 252.558594 487.074219 251.050781 C 492.324219 250.300781 495.386719 244.65625 506.175781 216.011719 C 519.710938 180.042969 521.699219 169.839844 516.265625 164.40625 C 512.058594 160.203125 501.867188 160.496094 498.191406 164.925781 Z M 498.191406 164.925781 " fill-opacity="1" fill-rule="nonzero"/><path fill="#ffffff" d="M 592.765625 224.871094 C 570.230469 248.851562 566.222656 259.238281 577.242188 265.113281 C 584.792969 269.140625 589.070312 266.316406 612.152344 242.097656 C 631.757812 221.515625 635.722656 212.710938 628.59375 205.589844 C 621.464844 198.46875 613.859375 202.457031 592.765625 224.871094 Z M 592.765625 224.871094 " fill-opacity="1" fill-rule="nonzero"/><g clip-path="url(#9e74fe7093)"><path fill="#ffffff" d="M 196.738281 261.339844 C 151.125 268.226562 129.480469 280.328125 115.910156 306.457031 C 102.835938 331.617188 92.222656 410.742188 92.222656 482.902344 C 92.222656 551.707031 95.015625 565.949219 111.773438 582.628906 C 129.863281 600.605469 145.128906 604.441406 205.074219 606.359375 C 257.199219 607.984375 425.417969 603.222656 475.867188 598.6875 C 571.117188 590.140625 584.171875 574.144531 587.246094 462.335938 C 588.339844 422.703125 587.574219 399.003906 584.28125 370.59375 C 576.515625 303.609375 568.414062 284.40625 542.589844 271.773438 L 527.207031 264.257812 C 269.0625 262.121094 321.039062 261.339844 196.738281 261.339844 Z M 508.695312 294.988281 C 508.695312 300.476562 359.109375 423.117188 341.367188 432.148438 C 326.78125 439.585938 317.132812 438.742188 301.734375 428.671875 C 287.199219 419.113281 165.867188 297.800781 168.351562 295.242188 C 170.839844 292.683594 192.304688 287.570312 196.738281 288.582031 C 203.015625 289.980469 508.707031 292.417969 508.707031 294.988281 Z M 545.316406 316.359375 C 558.019531 354.773438 564.3125 457.101562 556.921875 505.054688 C 548.359375 560.601562 538.925781 554.871094 538.925781 548.84375 C 538.925781 538.46875 498.652344 474.304688 459.6875 422.695312 L 438.0625 394.023438 L 463.082031 373.714844 C 541.96875 309.671875 534.878906 303.765625 539.199219 303.457031 C 540.761719 303.34375 545.605469 316.359375 545.332031 316.359375 Z M 241.304688 413.054688 C 229.410156 427.558594 235.75 420.609375 124.28125 544.929688 C 115.839844 506.933594 122.363281 369.769531 138.070312 324.4375 C 143.542969 308.660156 137.574219 304.363281 197.523438 367.179688 Z M 432.308594 429.996094 C 486.367188 503.210938 517.40625 563.898438 516.238281 564.882812 C 506.464844 573.039062 142.003906 587.179688 142.003906 569.691406 C 142.003906 567.261719 157.097656 550.058594 260.066406 432.078125 C 311.878906 472.601562 325.839844 485.453125 392.464844 430.960938 C 404.457031 421.15625 415.601562 413.0625 417.09375 413.0625 C 419.433594 413.054688 432.625 429.996094 432.308594 429.996094 Z M 432.308594 429.996094 " fill-opacity="1" fill-rule="nonzero"/></g><path fill="#ffffff" d="M 616.347656 322.480469 C 613.589844 323.191406 610.285156 334.078125 611.722656 337.730469 C 614.953125 345.945312 624.164062 346.734375 655.195312 341.46875 C 696.375 334.476562 697.226562 334.199219 700.730469 326.765625 C 703.285156 321.285156 702.984375 318.933594 699.007812 314.511719 C 692.816406 307.632812 688.296875 307.753906 648.417969 315.890625 Z M 616.347656 322.480469 " fill-opacity="1" fill-rule="nonzero"/></svg>