<svg xmlns="http://www.w3.org/2000/svg" xmlns:xlink="http://www.w3.org/1999/xlink" width="1024" zoomAndPan="magnify" viewBox="0 0 768 767.999994" height="1024" preserveAspectRatio="xMidYMid meet" version="1.0"><path fill="#ffffff" d="M 319.398438 129.222656 C 314.320312 138.730469 320.644531 191.894531 320.621094 191.554688 C 287.734375 199.929688 285.585938 201.488281 281.800781 194.789062 C 274.867188 182.515625 257.558594 165.679688 249.875 163.738281 C 238.78125 160.933594 222.25 171.859375 199.066406 197.371094 C 144.277344 257.691406 186.882812 256.488281 208.695312 280.0625 C 214.484375 286.324219 214.382812 286.847656 205.304688 297.175781 C 196.222656 307.507812 194.8125 307.878906 166.386719 308.964844 C 139.578125 309.996094 135.992188 310.9375 127.789062 319.144531 C 119.726562 327.210938 118.378906 332.058594 115.367188 364.042969 C 111.597656 404.089844 113.476562 420.0625 122.941406 428.433594 C 126.640625 431.699219 142.644531 436.546875 160.414062 439.78125 C 188.191406 444.84375 191.921875 446.394531 196.261719 454.640625 C 198.980469 459.808594 201.113281 465.195312 201.113281 466.914062 C 201.113281 468.632812 191.097656 479.992188 179.144531 491.949219 C 152.367188 518.757812 140.5625 532.597656 200.136719 584.847656 C 233.410156 614.023438 238.386719 613.976562 269.257812 584.164062 C 287.996094 566.070312 294.023438 562.09375 300.265625 563.71875 C 316.277344 567.867188 319.28125 573.335938 323.410156 605.636719 C 327.933594 641.160156 335.015625 655.917969 349.039062 659.03125 C 354.410156 660.226562 376.171875 658.183594 397.816406 654.460938 C 454.515625 644.707031 448.84375 644.652344 448.84375 579.792969 C 479.960938 571.226562 482.820312 568.992188 500.527344 585.003906 C 517.957031 600.777344 533.984375 607.59375 544.449219 603.6875 C 548.75 602.101562 565.425781 587.050781 581.921875 569.945312 C 607.738281 543.136719 611.628906 537.574219 611.628906 527.464844 C 611.628906 514.171875 606.464844 511.160156 567.058594 475.460938 C 584.488281 439.984375 584.820312 434.15625 610.023438 433.847656 C 627.785156 433.632812 645.324219 426.859375 651.082031 418 C 655.914062 410.546875 656.058594 405.730469 652.328125 375.046875 C 643.992188 306.597656 638.859375 311.015625 575.78125 306.574219 C 569.695312 281.585938 567.496094 284.589844 587.230469 255.1875 C 606.328125 226.761719 607.828125 219.941406 598.320312 205.453125 C 589.367188 191.832031 554.460938 162.898438 537.992188 155.453125 C 518.804688 146.738281 509.890625 149.449219 483.40625 171.921875 C 466.289062 186.445312 460.011719 189.84375 453.367188 188.179688 C 432.339844 182.929688 449.960938 131.320312 425.265625 112.402344 C 419.269531 107.808594 384.570312 107.453125 359.050781 111.722656 C 364.3125 111.707031 327.363281 114.3125 319.398438 129.222656 Z M 404.675781 144.726562 C 408.914062 202.195312 413.007812 210.910156 442.0625 223.355469 C 463.261719 232.472656 471.453125 230.414062 493.738281 210.355469 C 524.105469 183.03125 520.601562 183.539062 545.097656 202.957031 C 558.335938 213.460938 566.488281 222.269531 565.125 224.664062 C 563.898438 226.859375 557.003906 237.425781 550.074219 247.765625 C 532.769531 273.535156 531.636719 280.382812 540.019531 308.15625 C 548.910156 337.597656 554.789062 342.074219 584.503906 342.074219 C 598.390625 342.074219 608.484375 343.761719 610.648438 346.4375 C 615.125 351.929688 618.078125 386.984375 619.046875 396.015625 C 568.644531 403.890625 564.339844 399.558594 543.402344 440.914062 C 519.636719 487.84375 526.566406 487.742188 571.921875 527.796875 C 566.378906 534.136719 539.332031 565.914062 536.066406 565.914062 C 534.640625 565.914062 525.085938 559.121094 514.75 550.757812 C 492.730469 532.953125 484.714844 531.894531 451.125 542.367188 C 411.550781 554.695312 414.941406 565.578125 414.941406 615.972656 C 412.511719 616.371094 363.621094 624.785156 362.140625 623.105469 C 359.660156 620.277344 356.632812 571.609375 348.941406 556.554688 C 342.40625 543.777344 308.039062 525.222656 290.917969 525.222656 C 279.636719 525.222656 275.414062 527.804688 257.644531 545.574219 C 246.339844 556.871094 236.007812 565.921875 234.394531 565.921875 C 230.179688 565.914062 194.355469 531.765625 194.355469 527.804688 C 194.355469 526.015625 204.210938 515.304688 216.480469 503.746094 C 234.25 487.011719 238.59375 480.9375 238.535156 472.894531 C 238.449219 461.273438 221.898438 424.292969 213.738281 417.4375 C 206.800781 411.625 161.082031 403.851562 150.402344 401.839844 C 150.402344 339.640625 145.570312 342.082031 184.632812 342.082031 L 214.675781 342.082031 C 265.664062 280.0625 265.226562 286.625 212.09375 234.527344 L 244.390625 202.550781 C 267.050781 239.25 263.9375 240.644531 306.40625 228.734375 C 359.707031 213.785156 354.660156 210.625 351.945312 147.316406 C 408.535156 138.578125 405.015625 144.726562 404.675781 144.726562 Z M 404.675781 144.726562 " fill-opacity="1" fill-rule="nonzero"/><path fill="#ffffff" d="M 349.039062 264.566406 C 327.726562 269.550781 296.605469 287.972656 282.488281 303.957031 C 259.5625 329.96875 253.730469 345.945312 253.730469 382.769531 C 253.730469 411.84375 254.722656 417.042969 263.632812 434.773438 C 275.519531 458.476562 300.570312 482.25 326.402344 494.421875 C 343.039062 502.261719 349.378906 503.253906 382.605469 503.253906 C 418.785156 503.253906 420.867188 502.851562 443.003906 491.617188 C 513.257812 455.964844 531.351562 377.574219 492.242188 318.820312 C 462.839844 274.652344 402.957031 251.972656 349.011719 264.566406 Z M 405.5625 299.71875 C 490.65625 322.226562 503.609375 423.617188 425.589844 461.335938 C 402.332031 472.585938 361.417969 472.609375 340.03125 461.382812 C 252.882812 415.710938 279.488281 302.285156 381.050781 294.957031 C 385.464844 294.648438 406.148438 299.71875 405.5625 299.71875 Z M 405.5625 299.71875 " fill-opacity="1" fill-rule="nonzero"/></svg>