<svg xmlns="http://www.w3.org/2000/svg" xmlns:xlink="http://www.w3.org/1999/xlink" width="1024" zoomAndPan="magnify" viewBox="0 0 768 767.999994" height="1024" preserveAspectRatio="xMidYMid meet" version="1.0"><path fill="#ffffff" d="M 311.6875 109.605469 C 307.316406 126.824219 313.605469 128.859375 363.667969 126.679688 C 400.011719 125.097656 414.351562 125.957031 434.316406 130.886719 C 485.402344 143.644531 534.648438 173.351562 580.101562 218.992188 C 641.554688 280.714844 663.765625 349.292969 646.738281 424.730469 C 641.550781 447.707031 641.558594 450.488281 646.875 458.671875 C 657.167969 474.519531 673.789062 468.277344 680.582031 445.992188 C 687.816406 422.390625 691.457031 376.722656 688.328125 348.949219 C 680.75 281.398438 639.867188 213.980469 575.617188 162.988281 C 542.90625 137 486.09375 107.203125 452.484375 98.386719 C 431.230469 92.8125 367.226562 88.632812 349.957031 91.660156 C 355.367188 91.691406 315.609375 94.105469 311.6875 109.605469 Z M 311.6875 109.605469 " fill-opacity="1" fill-rule="nonzero"/><path fill="#ffffff" d="M 210.734375 158.40625 C 191.535156 163.9375 154.761719 190.878906 140.210938 210.085938 C 79.992188 289.546875 119.03125 427.824219 236.09375 549.546875 C 323.128906 640.078125 397.933594 679.613281 474.117188 675.351562 C 527.265625 672.375 567.425781 652.820312 597.285156 615.382812 C 616.148438 591.726562 638.023438 550.488281 638.023438 538.582031 C 638.023438 525.636719 625.332031 516.160156 586.25 499.894531 C 532.042969 477.359375 497.179688 456.613281 485.429688 456.613281 C 480.71875 456.613281 464.511719 462.324219 449.421875 469.304688 C 401.757812 491.355469 378.992188 486 338.722656 443.230469 C 312.570312 415.476562 298.179688 392.769531 291.949219 369.507812 C 278.710938 320.054688 335.535156 318.792969 338.492188 287.082031 C 339.535156 275.957031 336.121094 269.421875 313.117188 238.5625 C 274.816406 187.160156 258.449219 159.667969 250.878906 156.773438 C 236.917969 151.40625 211.097656 158.40625 210.734375 158.40625 Z M 268.347656 236.160156 L 300.234375 281.421875 C 274.328125 303.601562 252.554688 319.109375 252.824219 356.863281 C 253.082031 392.070312 281.03125 442.027344 322.183594 480.835938 C 405.125 559.050781 464.039062 496.417969 483.863281 496.417969 C 489.238281 496.417969 537.515625 521.253906 571.992188 534.996094 C 584.675781 540.042969 594.792969 545.929688 594.792969 548.195312 C 594.792969 556.082031 565.304688 597.152344 550.5625 609.800781 C 527.375 629.691406 501.519531 638.035156 463.089844 638.035156 C 435.664062 638.035156 426.773438 636.417969 403.425781 627.167969 C 255.523438 568.5625 74.339844 317.597656 179.53125 218.589844 C 193.25 205.679688 220.375 190.464844 229.253906 190.691406 C 238.136719 190.917969 267.660156 236.160156 268.347656 236.160156 Z M 268.347656 236.160156 " fill-opacity="1" fill-rule="nonzero"/><path fill="#ffffff" d="M 332.816406 181.253906 C 323.894531 187.75 322.269531 201.921875 329.730469 208.167969 C 332.851562 210.769531 342.070312 211.375 356.132812 209.851562 C 446.09375 200.398438 539.453125 291.339844 553.363281 402.097656 C 555.996094 423.011719 562.160156 431.582031 574.558594 431.582031 C 588.921875 431.582031 592.320312 423.359375 589.695312 394.898438 C 581.765625 308.488281 518.59375 221.105469 440.480469 188.488281 C 409.625 175.605469 346.398438 171.347656 332.824219 181.253906 Z M 332.816406 181.253906 " fill-opacity="1" fill-rule="nonzero"/><path fill="#ffffff" d="M 381.523438 279 C 376.234375 290.558594 383.558594 298.152344 408.933594 307.429688 C 454.351562 324.039062 467.253906 375.6875 482.226562 392.835938 C 492.671875 404.8125 512.148438 399.007812 512.148438 383.921875 C 512.148438 368.699219 482.664062 320.3125 461.398438 300.660156 C 429.515625 271.171875 390.007812 260.464844 381.496094 279.011719 Z M 381.523438 279 " fill-opacity="1" fill-rule="nonzero"/></svg>