<svg xmlns="http://www.w3.org/2000/svg" xmlns:xlink="http://www.w3.org/1999/xlink" width="1024" zoomAndPan="magnify" viewBox="0 0 768 767.999994" height="1024" preserveAspectRatio="xMidYMid meet" version="1.0"><path fill="#ffffff" d="M 332.867188 90.550781 C 326.191406 97.332031 327.40625 104.117188 337.613281 116.820312 C 358.15625 142.496094 359.03125 151.113281 343.835938 178.21875 C 329.265625 204.214844 328.578125 223.371094 341.542969 242.375 C 351.71875 257.300781 360.082031 261.300781 368.675781 255.347656 C 376.777344 249.75 376.574219 245.421875 367.585938 232.148438 C 357.667969 217.496094 358.441406 207.53125 371.089844 187.066406 C 389.9375 156.578125 386.199219 129.261719 358.921875 98.011719 C 340.390625 76.785156 334.460938 90.550781 332.867188 90.550781 Z M 332.867188 90.550781 " fill-opacity="1" fill-rule="nonzero"/><path fill="#ffffff" d="M 404.773438 95.25 C 398.226562 103.796875 399.066406 109.632812 409.988281 130.375 C 416.25 142.265625 421.519531 155.242188 421.519531 158.867188 C 421.519531 173.109375 383.566406 212.957031 398.273438 248.46875 C 407.472656 270.691406 432.992188 263.953125 424.472656 241.554688 C 419.378906 228.160156 420.9375 221.648438 434.863281 198.140625 C 453.53125 166.613281 454.332031 156.5 440.441406 127.34375 C 425.121094 95.25 413.109375 84.429688 404.773438 95.25 Z M 404.773438 95.25 " fill-opacity="1" fill-rule="nonzero"/><path fill="#ffffff" d="M 272.730469 97.5625 C 255.867188 107.285156 287.46875 138.683594 287.804688 150.007812 C 287.878906 152.5625 283.441406 163.28125 278.074219 173.519531 C 266.035156 196.472656 263.105469 211.707031 267.5625 228.273438 C 274.472656 253.996094 305.230469 273.507812 313.777344 257.59375 C 318.085938 249.566406 318.085938 249.566406 305.367188 236.957031 C 290.257812 221.984375 289.988281 211.683594 304.007812 184.574219 C 318.4375 156.648438 319.347656 147.714844 309.761719 128.15625 C 301.167969 110.738281 287.550781 94.519531 281.546875 94.625 C 277.566406 94.703125 272.996094 97.5625 272.730469 97.5625 Z M 272.730469 97.5625 " fill-opacity="1" fill-rule="nonzero"/><path fill="#ffffff" d="M 328.292969 286.46875 C 176.085938 290.269531 188.445312 290.34375 170.09375 305.992188 C 171.941406 503.34375 169.621094 508.769531 189.96875 550.464844 C 202.972656 577.191406 233.1875 606.769531 261.671875 620.667969 C 313.574219 645.996094 384.15625 652.035156 438.925781 635.835938 C 492.949219 619.863281 527.886719 579.792969 543.742188 515.621094 L 549.847656 491.007812 C 604.351562 491.007812 609.960938 491.835938 623.683594 484.53125 C 691.058594 448.660156 682.023438 375.820312 627.28125 345.648438 C 609.121094 335.640625 608.964844 336.972656 549.269531 337.242188 C 549.269531 318.796875 550.828125 296.304688 531.570312 289.523438 C 508.121094 281.257812 331.910156 286.46875 328.292969 286.46875 Z M 521.476562 405.273438 C 521.605469 479.117188 521.117188 487.035156 515.113281 509.265625 C 494.269531 586.433594 447.746094 617.589844 359.558594 613.492188 C 303.691406 610.894531 271.644531 598.621094 241.1875 568.171875 C 196.679688 523.691406 200.023438 490.230469 198.621094 406.101562 C 197.839844 359.363281 197.695312 320.691406 198.308594 320.40625 C 200.660156 319.3125 350.695312 316.296875 430.902344 315.726562 C 510.828125 315.164062 517.617188 315.507812 519.402344 320.230469 C 521.082031 320.230469 521.46875 403.292969 521.476562 405.273438 Z M 612.328125 369.796875 C 638.324219 383.363281 649.871094 415.246094 636.070312 435.417969 C 621.617188 456.535156 595.179688 466.535156 567.246094 461.449219 L 553.421875 458.925781 L 552.0625 368.214844 L 562.851562 365.15625 C 586.929688 358.320312 614.410156 369.796875 612.328125 369.796875 Z M 612.328125 369.796875 " fill-opacity="1" fill-rule="nonzero"/><path fill="#ffffff" d="M 172.332031 603.058594 C 158.085938 608.34375 169.824219 636.140625 196.644531 660.8125 C 221.546875 683.714844 250.574219 690.898438 344.609375 697.441406 C 414.304688 702.285156 466.164062 700.15625 497 691.121094 C 521.136719 684.058594 541.09375 666.902344 563.230469 634.269531 C 573.152344 619.609375 574.871094 608.53125 568.082031 602.941406 C 559.472656 595.859375 551.066406 601.078125 533.21875 624.589844 C 500.78125 667.324219 497.550781 668.273438 388.050781 667.753906 C 249.871094 667.09375 225.691406 658.003906 200.546875 623.484375 C 184.230469 601.078125 181.984375 599.457031 172.332031 603.058594 Z M 172.332031 603.058594 " fill-opacity="1" fill-rule="nonzero"/><path fill="#ffffff" d="M 369.226562 459.570312 C 351.25 461 345.992188 464.167969 345.992188 473.582031 C 345.992188 484.984375 352.355469 487.191406 382.222656 486.167969 C 405.730469 485.351562 410.828125 484.28125 414.390625 479.382812 C 419.429688 472.46875 419.457031 471.40625 414.769531 465.003906 C 408.046875 455.859375 375.664062 459.570312 369.226562 459.570312 Z M 369.226562 459.570312 " fill-opacity="1" fill-rule="nonzero"/><path fill="#ffffff" d="M 292.890625 526.828125 C 290.128906 527.363281 287.058594 531.105469 285.976562 535.257812 C 281.386719 552.996094 302.570312 557.644531 372.265625 554.089844 C 418.734375 551.734375 427.285156 549.449219 427.171875 539.410156 C 427.035156 526.304688 424.816406 525.84375 359.824219 525.84375 C 296.382812 525.855469 293.1875 526.828125 292.890625 526.828125 Z M 292.890625 526.828125 " fill-opacity="1" fill-rule="nonzero"/></svg>