<svg xmlns="http://www.w3.org/2000/svg" xmlns:xlink="http://www.w3.org/1999/xlink" width="1024" zoomAndPan="magnify" viewBox="0 0 768 767.999994" height="1024" preserveAspectRatio="xMidYMid meet" version="1.0"><path fill="#ffffff" d="M 351.738281 149.632812 C 348.363281 153.003906 350.054688 171.285156 355.582031 191.367188 C 360.855469 210.410156 360.929688 211.746094 356.449219 216.675781 C 351.875 221.753906 351.492188 221.644531 341.824219 212.476562 C 329.292969 200.574219 322.160156 197.121094 310.234375 197.121094 C 281.816406 197.121094 257.902344 241.203125 150.5 491.632812 C 127.894531 544.308594 107.855469 592.511719 105.914062 598.839844 C 99.054688 621.203125 85.417969 619.820312 296.386719 618.144531 C 482.292969 616.667969 543.21875 614.464844 618.59375 606.507812 C 678.910156 600.109375 681.285156 598.785156 681.9375 570.40625 C 682.789062 533.535156 615.09375 393.929688 580.421875 359.113281 C 570.597656 349.253906 570.546875 349.074219 569.636719 322.460938 C 568.726562 295.851562 568.753906 295.722656 575.253906 295.679688 C 589.027344 295.578125 620.6875 287.125 636.613281 279.300781 C 664.03125 265.824219 666.113281 248.472656 641.570312 237.96875 L 629.039062 232.597656 C 632.546875 228.761719 648.890625 211.441406 648.890625 207.820312 C 648.890625 203.902344 643.128906 193.398438 639.75 191.246094 C 634.5625 187.914062 590.664062 185.675781 568.726562 187.625 C 550.710938 189.230469 546.484375 190.550781 543.660156 195.425781 C 539.625 202.40625 541.34375 244.550781 543.921875 348.683594 L 535.308594 359.898438 C 521.679688 377.617188 492.355469 443.621094 489.734375 443.621094 C 487.117188 443.621094 473.085938 409.652344 438.300781 350.492188 C 426.324219 330.148438 416.855469 313.039062 417.28125 312.539062 C 417.710938 312.039062 423.15625 310.515625 429.449219 309.148438 C 440.152344 306.8125 441.460938 307.226562 452.167969 316.320312 C 460.78125 323.644531 465.539062 325.785156 471.878906 325.1875 C 478.667969 324.546875 480.40625 322.941406 481.148438 316.582031 C 481.839844 310.636719 479.640625 306.28125 472.007812 298.449219 C 455.464844 281.496094 467.640625 289.171875 472.789062 259.324219 C 474.632812 248.664062 475.664062 247.628906 489.761719 242.234375 C 503.855469 236.839844 504.78125 235.925781 504.78125 227.109375 C 504.78125 218.496094 504.015625 217.640625 495.640625 216.800781 C 490.675781 216.308594 482.921875 217.140625 478.667969 218.632812 C 469.574219 221.800781 469.53125 220.066406 445.46875 196.066406 C 457.449219 170.65625 460.539062 165.832031 456.996094 159.28125 C 453.859375 153.414062 444.699219 151.476562 438.691406 155.441406 C 436.96875 156.570312 431.679688 165.1875 426.941406 174.578125 C 418.523438 191.273438 418.082031 191.632812 407.617188 191.632812 C 381.960938 191.632812 385.734375 205.878906 378.796875 175.589844 C 376.160156 164.113281 372.746094 153.050781 371.28125 151.199219 C 368.347656 147.546875 354.910156 146.484375 351.738281 149.632812 Z M 599.488281 220.84375 C 589.375 233.589844 593.007812 246.875 609.195312 256.386719 C 616.523438 260.695312 605.386719 260.503906 575.507812 267.027344 C 563.238281 269.710938 566.601562 249.203125 569.746094 213.546875 L 605.257812 213.546875 Z M 427.726562 220.097656 C 439.910156 225.121094 446 234.152344 446 247.195312 C 446 269.902344 433.464844 282.082031 410.230469 281.96875 L 395.085938 281.886719 C 367.71875 242.3125 363.210938 240.144531 384.121094 227.308594 C 401.875 216.429688 413.933594 214.410156 427.726562 220.097656 Z M 402.136719 349.949219 C 400.667969 350.417969 395.871094 348.886719 391.171875 346.457031 C 368.289062 334.621094 357.785156 348.515625 344.695312 361.996094 C 325.269531 346.296875 311.640625 333.207031 290.125 354.007812 C 284.359375 359.546875 278.914062 364.082031 277.957031 364.082031 C 275.695312 364.082031 248.566406 336.679688 248.839844 336.953125 C 294.355469 245.761719 296.507812 240.617188 312.027344 224.007812 C 354.226562 264.097656 404.824219 349.074219 402.136719 349.949219 Z M 282.027344 393.292969 C 285.523438 392.410156 293.253906 387.460938 299.519531 382.09375 C 312.839844 370.691406 314.421875 370.40625 321.292969 378.148438 C 328.453125 386.234375 343.402344 392.3125 350.722656 390.117188 C 354.03125 389.125 360.777344 384.507812 365.738281 379.84375 C 381.480469 365.023438 375.019531 378.773438 406.863281 379.046875 C 423.90625 379.195312 421.554688 376.316406 451.289062 433.433594 L 473.96875 477 C 467.632812 489.253906 440.542969 540.34375 440.542969 546.90625 C 440.542969 553.855469 445.769531 558.648438 453.351562 558.648438 C 460.933594 558.648438 462.28125 556.554688 495.488281 493.429688 C 509.203125 467.34375 523.222656 444.164062 526.59375 442.039062 C 540.09375 433.433594 558.761719 451.847656 589.125 436.378906 L 596.964844 432.390625 C 598.765625 436.140625 663.398438 566.632812 654.144531 572.378906 C 644.253906 578.519531 445.6875 591.515625 319.921875 591.515625 L 319.921875 560.996094 L 329.0625 566.601562 C 350.722656 579.890625 360.976562 566.0625 355.53125 556.035156 C 353.316406 551.960938 334.027344 537.304688 317.835938 527.398438 C 317.273438 527.054688 315.042969 509.675781 313.398438 497.082031 C 322.773438 505.050781 337.09375 519.335938 345.1875 506.476562 C 350.132812 498.644531 345.273438 489.257812 325.746094 468.910156 C 298.980469 441.015625 295.644531 441.257812 271.84375 472.820312 C 253.957031 496.558594 250.25 507.03125 257.261719 514.039062 C 269.839844 526.605469 283.136719 498.390625 288.203125 498.390625 C 288.988281 498.390625 289.636719 505.035156 289.636719 513.105469 C 289.636719 527.820312 289.636719 527.820312 274.492188 539.214844 C 257 552.359375 253.613281 557.558594 256.929688 566.191406 C 259.921875 573.964844 271.882812 574.238281 281.542969 566.753906 C 285.199219 563.917969 289.296875 561.4375 290.417969 561.367188 C 293.171875 561.195312 292.511719 591.515625 292.511719 591.234375 C 145.980469 592.699219 135.886719 593.5 137.527344 588.359375 C 142.996094 571.148438 230.511719 381.089844 235.300781 376.023438 C 243.132812 367.75 244.269531 367.941406 252.683594 378.894531 C 252.90625 378.925781 266.355469 397.25 282.027344 393.292969 Z M 583.085938 409.183594 L 576.816406 412.652344 C 567.421875 417.847656 539.214844 416.425781 539.214844 410.734375 C 539.214844 406.816406 556.007812 377.863281 558.28125 377.863281 C 561.183594 377.882812 578.679688 403.054688 583.085938 409.183594 Z M 583.085938 409.183594 " fill-opacity="1" fill-rule="nonzero"/></svg>