<svg xmlns="http://www.w3.org/2000/svg" xmlns:xlink="http://www.w3.org/1999/xlink" width="350" zoomAndPan="magnify" viewBox="0 0 262.5 149.999998" height="200" preserveAspectRatio="xMidYMid meet" version="1.0"><defs><clipPath id="9fba544170"><path d="M 6 15 L 256 15 L 256 141 L 6 141 Z M 6 15 " clip-rule="nonzero"/></clipPath><clipPath id="25b8014cdb"><path d="M 0 15.140625 L 130.992188 -115.851562 L 261.984375 15.140625 L 130.992188 146.132812 Z M 0 15.140625 " clip-rule="nonzero"/></clipPath><clipPath id="b529c4c18b"><path d="M 0 15.140625 L 130.992188 -115.851562 L 261.984375 15.140625 L 130.992188 146.132812 Z M 0 15.140625 " clip-rule="nonzero"/></clipPath><clipPath id="c517e272ed"><path d="M 2 11 L 260 11 L 260 145 L 2 145 Z M 2 11 " clip-rule="nonzero"/></clipPath><clipPath id="df09760d5b"><path d="M 0 15.140625 L 130.992188 -115.851562 L 261.984375 15.140625 L 130.992188 146.132812 Z M 0 15.140625 " clip-rule="nonzero"/></clipPath><clipPath id="549d67e9ff"><path d="M 0 15.140625 L 130.992188 -115.851562 L 261.984375 15.140625 L 130.992188 146.132812 Z M 0 15.140625 " clip-rule="nonzero"/></clipPath></defs><g clip-path="url(#9fba544170)"><g clip-path="url(#25b8014cdb)"><g clip-path="url(#b529c4c18b)"><path fill="#141414" d="M 6.9375 15.550781 L 131.398438 140.011719 L 255.863281 15.550781 Z M 6.9375 15.550781 " fill-opacity="1" fill-rule="nonzero"/></g></g></g><g clip-path="url(#c517e272ed)"><g clip-path="url(#df09760d5b)"><g clip-path="url(#549d67e9ff)"><path fill="#141414" d="M 258.71875 18.40625 L 134.257812 142.867188 C 132.214844 144.910156 129.769531 144.910156 128.136719 143.277344 L 3.671875 18.8125 C 2.449219 17.589844 2.039062 15.550781 2.855469 13.917969 C 2.855469 12.285156 4.898438 11.0625 6.53125 11.0625 L 255.453125 11.0625 C 257.085938 11.0625 258.71875 11.875 259.535156 13.507812 C 259.941406 15.550781 259.941406 17.183594 258.71875 18.40625 Z M 130.992188 133.890625 L 244.84375 20.039062 L 17.140625 20.039062 Z M 130.992188 133.890625 " fill-opacity="1" fill-rule="nonzero"/></g></g></g></svg>