<svg xmlns="http://www.w3.org/2000/svg" xmlns:xlink="http://www.w3.org/1999/xlink" width="1024" zoomAndPan="magnify" viewBox="0 0 768 767.999994" height="1024" preserveAspectRatio="xMidYMid meet" version="1.0"><path fill="#ffffff" d="M 332.8125 96.761719 C 23.695312 129.796875 10.007812 522.796875 312.164062 569.910156 C 326.152344 572.09375 337.816406 575.199219 337.816406 576.746094 C 337.816406 578.292969 330.753906 590.914062 322.027344 604.914062 C 305.820312 630.914062 303.722656 638.519531 309.710938 649.582031 C 315.792969 660.832031 329.152344 660.800781 363.132812 649.441406 C 429.445312 627.277344 502.167969 586.179688 548.058594 544.949219 C 590.675781 506.648438 624.796875 453.242188 638.769531 402.898438 C 690.964844 215.175781 517.003906 77.074219 332.796875 96.761719 Z M 456.429688 145.078125 C 671.710938 218.152344 669.046875 471.195312 410.785156 591.375 C 358.140625 615.902344 359.089844 615.976562 374.175781 587.246094 C 381.351562 573.582031 386.605469 559.011719 385.960938 554.578125 C 384.871094 547.128906 381.800781 546.148438 341.476562 540.410156 C 317.492188 536.992188 285.824219 530.125 270.507812 525.023438 C 237.523438 514.015625 196.785156 487.769531 176.699219 464.574219 C 149.363281 433.011719 127.910156 376.5625 127.910156 336.203125 C 127.910156 314.125 137.152344 275.867188 148.121094 252.53125 C 175.128906 195.101562 236.902344 151.308594 313.496094 135.109375 C 321.914062 133.335938 350.140625 132.332031 376.128906 132.878906 C 418.445312 133.777344 426.925781 135.0625 456.429688 145.078125 Z M 456.429688 145.078125 " fill-opacity="1" fill-rule="nonzero"/><path fill="#ffffff" d="M 348.863281 323.226562 C 350.5 343.898438 358.082031 356.601562 376.09375 368.769531 C 391.050781 378.875 418.410156 379.398438 434.070312 369.964844 C 449.898438 360.390625 461.421875 334.894531 459.109375 314.558594 C 454.492188 273.890625 408.253906 250.53125 375.75 272.441406 C 380.792969 272.441406 345.785156 283.390625 348.863281 323.226562 Z M 425.078125 321.230469 C 425.078125 330.5625 414.585938 344.894531 407.753906 344.894531 C 399.753906 344.894531 387.085938 336.601562 383.824219 329.226562 C 381.046875 322.957031 382.003906 319.5625 389.082031 310.5625 C 405.597656 289.589844 425.113281 303.929688 425.113281 321.230469 Z M 425.078125 321.230469 " fill-opacity="1" fill-rule="nonzero"/><path fill="#ffffff" d="M 495.910156 286.726562 C 483.984375 299.726562 481.085938 305.53125 481.085938 316.226562 C 481.085938 353.898438 528.265625 378.277344 560.355469 357.199219 C 589.195312 338.28125 589.015625 292.082031 560.03125 273.082031 C 549.699219 266.320312 527.5625 263.449219 517.714844 267.601562 C 518.765625 267.601562 513.25 267.816406 495.910156 286.726562 Z M 547.722656 315.230469 C 547.722656 329.898438 528.925781 337.035156 519.585938 325.859375 C 516.183594 321.769531 516.824219 318.859375 522.960938 310.195312 C 530.992188 298.859375 536.640625 297.046875 543.390625 303.652344 C 544.09375 303.667969 547.722656 309.582031 547.722656 315.230469 Z M 547.722656 315.230469 " fill-opacity="1" fill-rule="nonzero"/><path fill="#ffffff" d="M 239.855469 279.113281 C 217.863281 290.511719 207.222656 311.222656 209.144531 338.894531 C 211.292969 369.898438 229.425781 389.839844 258.519531 393.175781 C 279.171875 395.546875 289.066406 392.929688 302.496094 381.542969 C 326.816406 360.921875 334.777344 322.3125 319.394531 299.5625 C 302.675781 274.847656 266.175781 265.46875 239.855469 279.121094 Z M 285.121094 349.5625 C 273.027344 364.902344 255.554688 363.894531 244.660156 347.234375 C 228.101562 321.886719 262.753906 296.03125 286.152344 316.269531 C 289.207031 316.269531 297.96875 333.277344 285.121094 349.5625 Z M 285.121094 349.5625 " fill-opacity="1" fill-rule="nonzero"/></svg>