<svg xmlns="http://www.w3.org/2000/svg" xmlns:xlink="http://www.w3.org/1999/xlink" width="1024" zoomAndPan="magnify" viewBox="0 0 768 767.999994" height="1024" preserveAspectRatio="xMidYMid meet" version="1.0"><defs><clipPath id="d36756f52c"><path d="M 54 176 L 716.335938 176 L 716.335938 567 L 54 567 Z M 54 176 " clip-rule="nonzero"/></clipPath></defs><g clip-path="url(#d36756f52c)"><path fill="#ffffff" d="M 240.996094 176.660156 C 174.15625 181.539062 141.328125 184.527344 112.148438 188.390625 C 52.003906 196.339844 53.152344 193.363281 54.390625 337.792969 C 55.808594 503.378906 60.539062 527.96875 95.199219 549.851562 C 119.367188 565.117188 137.222656 567.109375 248.335938 566.976562 C 333.210938 566.867188 360.921875 565.710938 412.742188 560.097656 C 520.175781 548.460938 540.824219 543.238281 558.289062 523.40625 C 571.121094 508.792969 574.746094 493.503906 575.144531 452.320312 C 575.332031 433.136719 575.925781 417.621094 576.472656 417.621094 C 577.019531 417.621094 595.328125 428.519531 617.082031 441.742188 C 648.382812 460.796875 659.1875 465.925781 668.542969 466.152344 C 695.003906 466.84375 692.988281 453.699219 708.730469 353.871094 C 712.820312 327.917969 716.203125 294.671875 716.203125 280.382812 C 716.203125 255.566406 715.789062 253.871094 707.605469 245.546875 C 701.867188 239.722656 696.039062 236.804688 690.117188 236.800781 C 678.554688 236.800781 572.960938 290.121094 572.945312 290.121094 C 572.484375 290.121094 571.304688 279.960938 570.339844 267.550781 C 567.191406 227.210938 550.972656 205 514.851562 191.503906 C 468.265625 174.113281 431.167969 176.660156 240.996094 176.660156 Z M 468.992188 211.554688 C 483.65625 214.273438 502.996094 220.121094 512 224.617188 C 537.910156 237.5 538.921875 241.035156 542.101562 332.996094 C 545.375 426.929688 544.089844 487.1875 538.582031 498.296875 C 532.792969 509.984375 519.050781 514.980469 475.636719 521.179688 C 342.535156 540.1875 176.925781 544.289062 125.675781 529.855469 C 106.667969 524.507812 95.886719 511.277344 91.902344 488.425781 C 83.878906 442.449219 79.152344 250.21875 85.59375 231.730469 C 88.574219 223.148438 89.859375 222.546875 111.574219 219.515625 C 298.667969 193.40625 486.449219 211.554688 468.992188 211.554688 Z M 664.5625 431.722656 C 661.289062 435.003906 594.78125 390.824219 580.664062 383.914062 C 573.054688 380.191406 574.039062 378.667969 574.039062 322.839844 C 579.269531 320.203125 678.054688 269.851562 682.890625 269.667969 C 685.339844 269.570312 686.5625 274.320312 686.554688 283.914062 C 688.847656 283.914062 665.625 430.65625 664.5625 431.722656 Z M 664.5625 431.722656 " fill-opacity="1" fill-rule="nonzero"/></g><path fill="#ffffff" d="M 453.621094 305.222656 C 440.371094 308.046875 417.828125 327.46875 415.503906 338.074219 C 408.703125 369.101562 436.945312 405.832031 467.441406 405.644531 C 480.980469 405.5625 499.460938 394.851562 508.105469 382.078125 C 516.242188 370.054688 517.097656 347.664062 509.933594 332.710938 C 500.699219 313.382812 474.773438 300.726562 453.621094 305.222656 Z M 477.3125 340.785156 C 498.144531 357.394531 472.644531 391.871094 451.582031 367.128906 C 442.214844 356.125 442.125 354.429688 450.261719 343.429688 C 457.867188 333.09375 466.597656 332.242188 477.3125 340.785156 Z M 477.3125 340.785156 " fill-opacity="1" fill-rule="nonzero"/><path fill="#ffffff" d="M 298.945312 325.238281 C 286.945312 335.695312 285.714844 338.074219 284.460938 353.304688 C 282.582031 376.136719 291.324219 394.230469 310.054688 406.234375 C 322.503906 414.199219 325.847656 414.980469 343.617188 414.046875 C 365.609375 412.882812 375.378906 407.730469 386.5 391.386719 C 403.992188 365.703125 392.960938 327.621094 363.632812 312.507812 C 354.550781 307.824219 327.25 307.035156 317.945312 311.195312 C 318.644531 311.167969 313.988281 312.140625 298.945312 325.238281 Z M 352.386719 340.847656 C 360.125 344.964844 377.085938 372.59375 350.691406 383.636719 C 341.664062 387.414062 338.882812 387.433594 330.105469 383.78125 C 311.777344 376.171875 308.664062 362.082031 322.117188 347.382812 C 337.640625 330.359375 352.683594 340.847656 352.386719 340.847656 Z M 352.386719 340.847656 " fill-opacity="1" fill-rule="nonzero"/><path fill="#ffffff" d="M 196.4375 316.617188 C 182.195312 320.246094 174.945312 326.222656 167.003906 340.890625 C 151.3125 369.894531 160.621094 399.957031 189.949219 414.992188 C 234.792969 437.984375 283.96875 388.492188 259.386719 345.113281 C 246.9375 323.09375 219.558594 310.710938 196.445312 316.605469 Z M 227.734375 355.28125 C 238.171875 365.714844 238.59375 374.316406 229.121094 383.773438 C 214.359375 398.539062 189.078125 388.570312 189.078125 367.972656 C 189.078125 359.234375 190.75 355.953125 197.253906 352.007812 C 209.378906 344.648438 218.003906 345.574219 227.6875 355.28125 Z M 227.734375 355.28125 " fill-opacity="1" fill-rule="nonzero"/><path fill="#ffffff" d="M 269.757812 462 C 225.199219 463.324219 215.0625 464.429688 211.101562 468.402344 C 204.703125 474.792969 208.277344 485.226562 218.148438 488.972656 C 228.585938 492.9375 405.847656 488.972656 414.707031 484.558594 C 422.316406 480.78125 424.953125 469.597656 419.703125 463.324219 C 413.519531 455.917969 293.714844 462 269.757812 462 Z M 269.757812 462 " fill-opacity="1" fill-rule="nonzero"/></svg>