<svg xmlns="http://www.w3.org/2000/svg" xmlns:xlink="http://www.w3.org/1999/xlink" width="1024" zoomAndPan="magnify" viewBox="0 0 768 767.999994" height="1024" preserveAspectRatio="xMidYMid meet" version="1.0"><defs><clipPath id="122ea262f2"><path d="M 124 35 L 650 35 L 650 705.769531 L 124 705.769531 Z M 124 35 " clip-rule="nonzero"/></clipPath></defs><g clip-path="url(#122ea262f2)"><path fill="#ffffff" d="M 162.308594 41.210938 C 121.636719 66.457031 112.09375 129.84375 141.1875 182.171875 C 150.847656 199.5625 151.730469 204.1875 155.933594 259.394531 C 163.582031 360.03125 157.589844 419.835938 165.496094 438.554688 C 172.144531 454.300781 270.054688 547.65625 363.84375 645.953125 L 420.941406 705.777344 C 456.652344 703.226562 458.25 704.949219 482.800781 687.457031 C 527.445312 655.636719 634.757812 555.925781 644.746094 536.988281 C 655.578125 516.449219 650.164062 501.886719 613.808594 453.707031 C 581.3125 410.660156 455.816406 255.847656 438.882812 238.003906 C 417.765625 215.730469 414.558594 214.941406 332.925781 211.972656 C 273.277344 209.820312 210.355469 203.121094 205.660156 198.449219 C 201.570312 194.347656 234.9375 103.53125 219.363281 63.15625 C 209.515625 37.625 183.933594 27.789062 162.269531 41.242188 Z M 172.476562 169.5625 C 164.363281 169.65625 143.871094 105.472656 171.589844 75.902344 C 180.28125 66.644531 183.074219 66.589844 187.867188 75.582031 C 194.65625 75.597656 181.5 169.445312 172.515625 169.554688 Z M 399.875 249.179688 C 451.085938 298.171875 611.441406 505.375 613.941406 514.964844 C 617.933594 530.304688 471.78125 656.214844 451.859375 666.617188 C 446.125 669.613281 439.007812 671.109375 435.597656 670.035156 C 426.890625 667.28125 383.796875 613.414062 194.203125 423.699219 C 194.203125 238.058594 176.214844 225.394531 189.257812 230.34375 C 224.480469 243.695312 362.089844 247.535156 399.875 249.179688 Z M 399.875 249.179688 " fill-opacity="1" fill-rule="nonzero"/></g><path fill="#ffffff" d="M 258.613281 271.5625 C 243.625 278.960938 224.488281 302.90625 224.488281 314.257812 C 224.488281 324.210938 235.96875 344.050781 248.40625 355.59375 C 271.824219 377.320312 309.609375 373.925781 324.96875 348.714844 C 334.488281 333.0625 333.917969 304.191406 323.78125 289.046875 C 322.925781 287.769531 322.015625 286.535156 321.050781 285.339844 C 320.085938 284.148438 319.070312 283 318 281.894531 C 316.929688 280.792969 315.816406 279.738281 314.652344 278.738281 C 313.488281 277.734375 312.28125 276.785156 311.035156 275.890625 C 309.785156 274.996094 308.5 274.160156 307.175781 273.382812 C 305.851562 272.605469 304.496094 271.886719 303.109375 271.230469 C 301.722656 270.574219 300.304688 269.980469 298.863281 269.449219 C 297.421875 268.921875 295.960938 268.457031 294.476562 268.058594 C 292.996094 267.660156 291.496094 267.332031 289.984375 267.070312 C 288.472656 266.804688 286.949219 266.609375 285.421875 266.484375 C 283.890625 266.359375 282.359375 266.300781 280.824219 266.3125 C 279.289062 266.324219 277.753906 266.402344 276.226562 266.554688 C 274.699219 266.703125 273.179688 266.921875 271.671875 267.207031 C 270.164062 267.492188 268.671875 267.84375 267.195312 268.265625 C 265.71875 268.683594 264.261719 269.171875 262.828125 269.722656 C 261.394531 270.273438 259.992188 270.886719 258.613281 271.5625 Z M 297.492188 310.75 C 308.320312 333.398438 284.195312 346.21875 265.628906 327.65625 L 257.023438 319.046875 L 266.503906 309.152344 C 287.261719 287.496094 297.835938 310.765625 297.492188 310.765625 Z M 297.492188 310.75 " fill-opacity="1" fill-rule="nonzero"/><path fill="#ffffff" d="M 395.722656 445.574219 C 352.03125 485.082031 337.945312 499.71875 338.71875 504.765625 C 340.113281 513.757812 348.847656 518.714844 358.734375 516.128906 C 368.121094 513.664062 467.972656 426.910156 475.347656 414.785156 C 481.824219 404.132812 476.714844 395.3125 463.324219 394.015625 C 448.433594 392.566406 398.21875 445.574219 395.722656 445.574219 Z M 395.722656 445.574219 " fill-opacity="1" fill-rule="nonzero"/><path fill="#ffffff" d="M 462.699219 499.703125 C 404.976562 542.503906 396.324219 551.945312 405.109375 562.515625 C 413.546875 572.691406 425.070312 567.464844 476.089844 530.429688 C 541.789062 482.6875 543.035156 481.554688 541.789062 469.039062 C 540.953125 460.429688 539.199219 458.675781 530.597656 457.871094 C 515.390625 456.429688 465.015625 499.703125 462.699219 499.703125 Z M 462.699219 499.703125 " fill-opacity="1" fill-rule="nonzero"/></svg>