<svg xmlns="http://www.w3.org/2000/svg" xmlns:xlink="http://www.w3.org/1999/xlink" width="1024" zoomAndPan="magnify" viewBox="0 0 768 767.999994" height="1024" preserveAspectRatio="xMidYMid meet" version="1.0"><path fill="#ffffff" d="M 266.398438 153.578125 C 185.890625 157.03125 156.746094 155.933594 126.722656 186.195312 C 113.757812 199.265625 108.253906 208.261719 102.628906 225.523438 C 81.457031 290.519531 78.582031 454.128906 97.285156 530.222656 C 112.566406 592.402344 136.742188 610.871094 220.414062 624.273438 C 372.542969 648.644531 627.285156 640.796875 677.019531 570.828125 C 686.878906 556.941406 687.027344 556.117188 687.984375 507.519531 C 689.097656 453.484375 676.234375 297.074219 666.742188 249.824219 C 663.796875 235.113281 656.847656 213.75 651.152344 201.863281 C 634.445312 167.035156 612.5625 157.375 537.835938 151.824219 C 502.46875 149.195312 507.246094 152.945312 488.371094 112.980469 C 473.1875 80.804688 469.1875 79.078125 409.132812 78.382812 C 303.449219 77.195312 299.847656 87.578125 266.398438 153.578125 Z M 465.652344 148.144531 C 478.234375 180.847656 479.402344 181.480469 536.246094 186.570312 C 596.925781 192.011719 612.347656 197.847656 621.453125 218.792969 C 631.632812 242.226562 637.796875 281.460938 646.671875 379.300781 C 660.476562 531.484375 658.5625 550.863281 628.21875 566.335938 C 608.589844 576.347656 559.875 588.566406 509.101562 596.195312 C 418.085938 609.890625 241.929688 600.785156 175.058594 578.945312 C 156.339844 572.828125 143.859375 560.273438 136.789062 540.457031 C 116.070312 482.34375 112.851562 337.742188 130.519531 258.453125 C 143.351562 200.867188 160.378906 190.289062 240.855469 189.910156 L 284.289062 189.714844 C 322.1875 113.160156 315.496094 111.757812 400.84375 111.097656 C 444.589844 110.761719 447.058594 111.097656 451.9375 118.257812 C 453.332031 118.289062 463.585938 142.773438 465.652344 148.152344 Z M 465.652344 148.144531 " fill-opacity="1" fill-rule="nonzero"/><path fill="#ffffff" d="M 366.667969 217.882812 C 313.664062 225.097656 262.96875 256.414062 235.859375 298.714844 C 205.097656 346.675781 204.285156 415.027344 233.917969 461.140625 C 307.027344 574.898438 489.519531 563.449219 549.960938 441.316406 C 561.65625 417.679688 562.890625 412.542969 564.058594 382.5 C 565.625 342.214844 557.894531 315.488281 535.929688 285.625 C 499.703125 236.375 431.503906 209.085938 366.667969 217.898438 Z M 518.746094 323.996094 C 528.230469 342.238281 529.226562 347.019531 529.226562 374.515625 C 529.226562 402.652344 528.378906 406.558594 517.757812 427.589844 C 497.535156 467.640625 457.046875 495.667969 407.550781 503.886719 C 345.910156 514.082031 280.585938 482.09375 256.445312 429.828125 C 249.457031 414.707031 247.828125 406.007812 247.71875 382.671875 C 247.578125 358.359375 248.910156 351.160156 256.546875 334.875 C 307.164062 226.832031 467.09375 224.738281 518.746094 323.996094 Z M 518.746094 323.996094 " fill-opacity="1" fill-rule="nonzero"/><path fill="#ffffff" d="M 549.859375 221.023438 C 541.96875 229.648438 542.589844 247.175781 550.9375 251.683594 C 560.199219 256.679688 573.355469 255.808594 579.355469 249.800781 C 585.355469 243.796875 586.125 224.496094 580.476562 218.785156 C 574.429688 212.660156 556.28125 213.988281 549.859375 221.023438 Z M 549.859375 221.023438 " fill-opacity="1" fill-rule="nonzero"/><path fill="#ffffff" d="M 309.824219 308.109375 C 291.886719 317.230469 248.664062 367.859375 286.609375 426.949219 C 308.539062 461.164062 359.925781 485.542969 370.085938 466.597656 C 384.535156 439.652344 331.984375 439.988281 312.832031 402.332031 C 301.453125 379.949219 304.960938 361.496094 324.824219 339.34375 C 338.015625 324.640625 339.050781 314.085938 328.027344 306.734375 C 322.257812 302.878906 319.726562 303.074219 309.824219 308.109375 Z M 309.824219 308.109375 " fill-opacity="1" fill-rule="nonzero"/><path fill="#ffffff" d="M 449.078125 422.566406 C 442.03125 428.125 431.132812 433.660156 424.796875 434.867188 C 410.746094 437.558594 404.699219 447.164062 409.914062 458.574219 C 415.398438 470.660156 434.410156 469.554688 457.398438 455.769531 C 477.167969 443.941406 485.109375 430.648438 478.601562 420.210938 C 468.660156 404.339844 449.863281 422.566406 449.078125 422.566406 Z M 449.078125 422.566406 " fill-opacity="1" fill-rule="nonzero"/></svg>